<?xml version="1.0" encoding="utf-8"?>
<!-- Generator: Adobe Illustrator 19.2.1, SVG Export Plug-In . SVG Version: 6.00 Build 0)  -->
<svg version="1.1" id="Layer_1" xmlns="http://www.w3.org/2000/svg" xmlns:xlink="http://www.w3.org/1999/xlink" x="0px" y="0px"
	 viewBox="0 0 354 354" style="enable-background:new 0 0 354 354;" xml:space="preserve">
<path d="M177,33.2c80.6,0,145.9,65.3,145.9,145.9c0,80.6-65.3,145.9-145.9,145.9S31.1,259.6,31.1,179.1
	C31.1,98.5,96.4,33.2,177,33.2z M261.1,259.2c-21.2-22.2-51-36-84.1-36s-62.9,13.8-84.1,36c21.2,22.2,51,36,84.1,36
	S239.9,281.4,261.1,259.2z M228,144.8c0-28.2-22.8-51-51-51s-51,22.8-51,51s22.8,51,51,51S228,173,228,144.8z"/>
</svg>
