<svg xmlns="http://www.w3.org/2000/svg" viewBox="0 0 354 354"><title>ambulance</title><circle cx="107.6" cy="231.51" r="24.78"/><circle cx="244.94" cy="231.51" r="24.78"/><path d="M173.36,81.52h13.42a6.79,6.79,0,0,1,6.79,6.79v9.17a0.63,0.63,0,0,1-.62.63H167.2a0.63,0.63,0,0,1-.62-0.62V88.31A6.79,6.79,0,0,1,173.36,81.52Z"/><path d="M290.43,102.77H148.78A28.07,28.07,0,0,0,126,114.38L91.78,161.71a18.48,18.48,0,0,1-6.12,5.39l-20,10.9a10.36,10.36,0,0,0-5.4,9L60,214H59.35a4.21,4.21,0,0,0-4.21,4.21v9.11a4.21,4.21,0,0,0,4.21,4.21h17a1.45,1.45,0,0,0,1.46-1.36,29.78,29.78,0,0,1,59.5,0,1.45,1.45,0,0,0,1.46,1.36h74.92a1.45,1.45,0,0,0,1.46-1.36,29.78,29.78,0,0,1,59.5,0,1.45,1.45,0,0,0,1.46,1.36h14a8.72,8.72,0,0,0,8.72-8.72V111.21A8.44,8.44,0,0,0,290.43,102.77Zm-115,61.13a5.08,5.08,0,0,1-5.08,5.08h-63.1a4.35,4.35,0,0,1-3.45-7l30.77-40.12a11.21,11.21,0,0,1,8.9-4.39h26.89a5.08,5.08,0,0,1,5.08,5.08v41.33Zm92,0.79a4.75,4.75,0,0,1-4.75,4.75H245.93a0.9,0.9,0,0,0-.9.9v16.73a4.75,4.75,0,0,1-4.75,4.75H228.7a4.75,4.75,0,0,1-4.75-4.75V170.33a0.9,0.9,0,0,0-.9-0.9H206.32a4.75,4.75,0,0,1-4.75-4.75V153.1a4.75,4.75,0,0,1,4.75-4.75h16.73a0.9,0.9,0,0,0,.9-0.9V130.73A4.75,4.75,0,0,1,228.7,126h11.58a4.75,4.75,0,0,1,4.75,4.75v16.73a0.9,0.9,0,0,0,.9.9h16.73a4.75,4.75,0,0,1,4.75,4.75v11.58Z"/></svg>