<svg xmlns="http://www.w3.org/2000/svg" viewBox="0 0 354 354"><title>bedah</title><path d="M231.7,119.2s-0.4-14.7-1.2-22.6-1.4-19.1-5.1-25.4A42.8,42.8,0,0,0,207,54.3c-8.3-3.9-17.5-5.5-30.1-5.5s-21.7,1.6-30,5.5a42.8,42.8,0,0,0-18.4,16.9c-3.6,6.3-4.3,17.6-5.1,25.4s-1.2,22.6-1.2,22.6c-4.8,3.1-3.6,11.6-3.6,11.6,1.9,20,14,25.5,14,25.5,0.9,9.1,4.1,15.7,9.5,23.1s12.1,11.5,19,14.2a56,56,0,0,0,14.4,3.1,17.5,17.5,0,0,0,3.4,0,54.7,54.7,0,0,0,13.9-3.1c6.8-2.7,13-6.2,19-14.2s8.6-14,9.5-23.1c0,0,12.1-5.5,14-25.5C235.3,130.8,236.5,122.3,231.7,119.2Zm-7.2-.7-14.3,21.4s-16.9-6.1-33.4-6.6-33.4,6.6-33.4,6.6L129,118.5v-5s14.8-13.4,47.8-13.6,47.8,13.6,47.8,13.6v5Z"/><path d="M289.7,280.6c-0.1-4.3-2.4-18.5-3.1-23.2s-5.1-18.7-6.7-22a55.9,55.9,0,0,0-11.8-16.1c-6.3-5.9-18.7-11.1-23.3-12.6s-17.7-6.7-24.4-8.7-10.4-8-10.4-8a87.1,87.1,0,0,1-.6,9.2c-0.5,2.3-4.1,10.3-9.3,16.6a209.2,209.2,0,0,1-17,17.6,58.4,58.4,0,0,1-5,4,2.7,2.7,0,0,1-2.4,0,58.4,58.4,0,0,1-5-4,209.2,209.2,0,0,1-17-17.6c-5.2-6.4-8.9-14.3-9.3-16.6a87.1,87.1,0,0,1-.6-9.2s-3.7,6-10.4,8-19.8,7.2-24.4,8.8-17,6.8-23.3,12.6A55.9,55.9,0,0,0,74,235.4c-1.6,3.3-6,17.3-6.7,22s-3,18.9-3.1,23.2-0.4,7.6-.4,7.6A101.3,101.3,0,0,0,87.8,297c12.9,2.8,66.9,8.2,89,8.2h0.4c22,0,76-5.4,89-8.2a101.3,101.3,0,0,0,23.9-8.8S289.8,284.9,289.7,280.6Z"/></svg>