<svg xmlns="http://www.w3.org/2000/svg" viewBox="0 0 354 354"><title>bedah</title><path d="M214.94,116.84s-0.44-14.75-1.19-22.56-1.44-19.12-5.06-25.44A42.77,42.77,0,0,0,190.25,52c-8.31-3.87-17.46-5.5-30.08-5.5s-21.66,1.63-30,5.5a42.77,42.77,0,0,0-18.44,16.87c-3.62,6.31-4.31,17.63-5.06,25.44s-1.19,22.56-1.19,22.56c-4.81,3.13-3.62,11.63-3.62,11.63,1.88,20,14,25.48,14,25.48,0.94,9.06,4.09,15.74,9.53,23.05,6,8,12.15,11.47,19,14.22a56,56,0,0,0,14.38,3.11,17.5,17.5,0,0,0,3.4,0,54.66,54.66,0,0,0,13.91-3.11c6.81-2.75,13-6.2,19-14.22,5.44-7.32,8.59-14,9.53-23.05,0,0,12.14-5.48,14-25.48C218.56,128.47,219.75,120,214.94,116.84Zm-7.19-.73-14.33,21.42s-16.94-6.12-33.42-6.62c-16.48.5-33.42,6.63-33.42,6.63l-14.33-21.42v-5S127.08,97.7,160,97.53c32.92,0.17,47.75,13.58,47.75,13.58v5Z"/><path d="M267.72,303.83a4.85,4.85,0,0,0,5.08,1.92c4.53-1.09,12.93-3.86,19.73-10.45,8-7.78,10.6-9.88,13.94-16.58a4.33,4.33,0,0,0-.82-5l-17.76-17.53s-1.94-21.42-4-27.33-11.17-19.67-18.67-24l-2.42,6s8.83,8.08,10.25,10.46,0.46,2.54-.46,2.08-9.62-9.42-10.25-10-10.12-8.54-13.17-11a63,63,0,0,0-10-6.27c-3.15-1.58-8.17-2.06-10.42.4s-3.12,6.17-1,8.75,15.06,10.85,15.06,10.85l6.94,5.52a1.27,1.27,0,0,1,.2,1.79h0a1.27,1.27,0,0,1-1.74.23c-3.12-2.28-12.8-9.31-14.84-10.41-2.44-1.31-5.1-3-7.85-1.9s-3.87,2.38-4.35,3.58-1.73,5.19.65,7.44,11.38,8.47,11.38,8.47,6.63,4.91,6.19,5.81-1,.44-2.06-0.19S224,227.13,224,227.13a3.12,3.12,0,0,0-3,0c-1.66.88-4.28,2.13-4.47,5.5s-0.59,4.88,1.31,7,12.41,11.56,12.41,11.56-0.69.48-3-1.21-7-5.69-7-5.69-0.77-.82-1.31-0.32-3,3.35-3.34,5.65c-0.29,2,.49,4.58,2.89,7.89s11.8,13.5,16.34,16.71,9.42,7.54,19.42,10.67Z"/><path d="M221.32,266l-4.37,13.71s-1.17,4.17,0,6.75a7.39,7.39,0,0,0,4.92,4.25c1.58,0.33,6.67-.08,8.38-2.79a15.86,15.86,0,0,0,2.08-7.25c0-1,.21-4.25.21-4.25Z"/><path d="M259.07,207.88s-11.56-9.62-14.44-11.25l2.32-6.79a2.73,2.73,0,0,1,3.07-2,0.7,0.7,0,0,0,.77-0.43l5-12.31s-5.52-12.59,3.31-27.54c8.55-14.47,21.24-23.44,24.82-25.8a0.41,0.41,0,0,1,.61.47l-23.22,69.1a0.51,0.51,0,0,0,.29.64h0a3,3,0,0,1,1.7,3.75Z"/><path d="M217,264.72a1.54,1.54,0,0,0-.11-1.31c-1.18-2-4.91-8.6-6.29-12.71-1.22-3.6,1.81-6.36,3.51-7.57a1.12,1.12,0,0,0,.28-1.55,44.73,44.73,0,0,1-3.13-5.88c-2.32-4.94,2-9.61,4.51-11.76a2.09,2.09,0,0,0,.52-2.57c-1.07-1.94-1.31-4.95-.5-8.42s4.5-4.85,6.12-5.31A0.36,0.36,0,0,0,222,207c-1.38-1.21-1.44-3.58-1.28-5.2-5.73-2.15-13-4.89-17.49-6.22-6.69-2-10.44-8-10.44-8a87.08,87.08,0,0,1-.56,9.23c-0.46,2.33-4.06,10.27-9.31,16.65a209.16,209.16,0,0,1-17,17.63,58.36,58.36,0,0,1-5,4,1.65,1.65,0,0,1-1.92,0,58.36,58.36,0,0,1-5-4,209.16,209.16,0,0,1-17-17.62c-5.25-6.37-8.85-14.31-9.31-16.65a87.08,87.08,0,0,1-.56-9.23s-3.75,6-10.44,8-19.81,7.19-24.37,8.75-17,6.75-23.31,12.63A55.93,55.93,0,0,0,57.25,233c-1.56,3.31-6,17.31-6.69,22s-3,18.88-3.06,23.19-0.37,7.63-.37,7.63A101.32,101.32,0,0,0,71,294.61c12.92,2.79,66.93,8.17,89,8.17,10.17,0,27.17-1.15,43.78-2.66Z"/></svg>