<svg xmlns="http://www.w3.org/2000/svg" viewBox="0 0 354 354"><title>bookmark_light</title><path d="M264.1,319.2a20.3,20.3,0,0,1-14.9-6.6l-47.3-50.9-48.2,48.9a20.5,20.5,0,0,1-35.7-13.6V71.5a11.8,11.8,0,1,0-23.5,0V212.2a12.5,12.5,0,0,1-25,0V71.5a36.8,36.8,0,0,1,31.9-36.4,12.6,12.6,0,0,1,2.8-.3H239.5a45.2,45.2,0,0,1,45.1,45.1V298.8A20.5,20.5,0,0,1,264.1,319.2ZM202,234.8a20.5,20.5,0,0,1,15,6.5l42.7,45.9V79.9a20.2,20.2,0,0,0-20.1-20.1H141a36.8,36.8,0,0,1,1.9,11.8V286.1l43.8-44.5a20.5,20.5,0,0,1,14.8-6.8H202Z"/></svg>