<svg xmlns="http://www.w3.org/2000/svg" viewBox="0 0 354 354"><title>bucketBold</title><path d="M325.2,144.3H270.4a1,1,0,0,1-.9-0.5L225,58.3a13.6,13.6,0,0,0-18.6-5.8,13.3,13.3,0,0,0-5.2,17.8l37.8,72.5a1,1,0,0,1-.9,1.4H115.9a1,1,0,0,1-.9-1.4l37.6-72.2a13.6,13.6,0,0,0-4-17.4A13.3,13.3,0,0,0,129.1,58L84.5,143.8a1,1,0,0,1-.9.5H28.8a7.5,7.5,0,0,0-7.5,7.5v17.7a7.5,7.5,0,0,0,7.5,7.5H39.1a3.3,3.3,0,0,1,3.2,2.6L67.2,290.4a33.2,33.2,0,0,0,32.4,25.9H254.5a33.2,33.2,0,0,0,32.4-25.9l24.9-110.8a3.3,3.3,0,0,1,3.2-2.6h10.3a7.5,7.5,0,0,0,7.5-7.5V151.8A7.5,7.5,0,0,0,325.2,144.3ZM124.8,273a8.5,8.5,0,0,1-17,0V203.8a8.5,8.5,0,0,1,17,0V273Zm60.8,0a8.5,8.5,0,0,1-17,0V203.8a8.5,8.5,0,0,1,17,0V273Zm60.8,0a8.5,8.5,0,0,1-17,0V203.8a8.5,8.5,0,0,1,17,0V273Z"/></svg>