<svg xmlns="http://www.w3.org/2000/svg" viewBox="0 0 354 354"><title>child_health</title><path d="M161.09,326.58h0Z"/><path d="M249.34,269.33c-7.25-14-21.62-21.12-34.37-26.12s-21-7.5-21-7.5l-0.28-.13a39.61,39.61,0,0,0,2.78-3.24c10.46-13.67,13.88-20.83,13.88-20.83s12.5-7.92,14.63-22.92-2.12-17.37-6.62-18.5a87.17,87.17,0,0,0,1.5-31c-3.41-22.95-21.25-49.56-58.75-49.56s-55.34,26.62-58.75,49.56a87.17,87.17,0,0,0,1.5,31c-4.5,1.13-8.75,3.5-6.62,18.5s15.63,22.75,15.63,22.75-0.25,3.63,12.87,21a39,39,0,0,0,2.86,3.36h0s-8.25,2.5-21,7.5-27.13,12.13-34.38,26.13-10.5,45.38-10.5,45.38,31,11.85,98.58,11.87,98.58-11.87,98.58-11.87S256.59,283.33,249.34,269.33Zm-127-57.44L118,204s-9-4.25-12.09-16.66c-1.74-7,1.36-10.52,3.5-10.75,1.81-.19,3.64,1.09,4.5,1.8a0.3,0.3,0,0,0,.49-0.23c0-4,0-24.34,5.7-30.2,0,0,16.64-8.37,19-13.5,0,0,1.88,11.75-2.25,18.38,0,0,23.5-4,31.88-18.37,0,0-.37,13.13-3.75,16.25,0,0,20-1.75,24.75-15.37,0,0,12.75,8.75,16,21.75a80.49,80.49,0,0,1,2.66,21.05,0.3,0.3,0,0,0,.49.23c0.87-.71,2.68-2,4.47-1.78,2.14,0.23,5.24,3.73,3.5,10.75C213.75,199.75,204.74,204,204.74,204l-4.34,7.9c-0.78,1.7-1.55,3.36-10.19,14.69-10.05,13.19-28,13.71-28.72,13.71s-18.07,1.15-28.06-12.08C125.81,218.12,123.1,213.6,122.32,211.9Zm38.77,57.6a27.65,27.65,0,0,1-27.65-27.65c0-.59,0-1.18.07-1.76,12.62,9.48,27.58,9.21,27.58,9.21S176,249.51,188.66,240c0,0.6.08,1.2,0.08,1.82A27.65,27.65,0,0,1,161.09,269.5Z"/><path d="M310.55,62.87H282.07a1.4,1.4,0,0,1-1.4-1.4V33a5.58,5.58,0,0,0-5.58-5.58H248.92A5.58,5.58,0,0,0,243.34,33V61.48a1.4,1.4,0,0,1-1.4,1.4H213.46a5.58,5.58,0,0,0-5.58,5.58V94.62a5.58,5.58,0,0,0,5.58,5.58h28.48a1.4,1.4,0,0,1,1.4,1.4v28.48a5.58,5.58,0,0,0,5.58,5.58h26.17a5.58,5.58,0,0,0,5.58-5.58V101.6a1.4,1.4,0,0,1,1.4-1.4h28.48a5.58,5.58,0,0,0,5.58-5.58V68.46A5.58,5.58,0,0,0,310.55,62.87Z"/></svg>