<svg id="Layer_1" data-name="Layer 1" xmlns="http://www.w3.org/2000/svg" viewBox="0 0 354 354"><title>crownBold</title><path d="M88.58,228.75l3.77,24.73a8,8,0,0,0,7.82,6.79L177,261.17l76.83-.89a8,8,0,0,0,7.82-6.79l3.77-24.73a2,2,0,0,0-2-2.3H90.56A2,2,0,0,0,88.58,228.75Z"/><path d="M266.34,211.45a2,2,0,0,0,2-1.7l11.78-77.3a8,8,0,0,0-12.81-7.57l-37.93,29.45a8,8,0,0,1-11.5-1.79L182.39,95.81a6.35,6.35,0,0,0-10.77,0l-35.48,56.73a8,8,0,0,1-11.5,1.79L86.71,124.88a8,8,0,0,0-12.81,7.57l11.78,77.3a2,2,0,0,0,2,1.7H266.34Z"/></svg>