<svg xmlns="http://www.w3.org/2000/svg" viewBox="0 0 354 354"><title>dentis</title><path d="M177.09,82.23s1.87,0.22,7.1-1.13a145.55,145.55,0,0,0,14.57-5.16c2.89-1.1,12.12-3.55,17.1-3.62S235.34,74,244.49,83.63s12.74,20.5,13.11,27.38,0.11,20.52-2.56,28.3c-2.28,6.65-9.12,21.27-9.12,21.27s-3.93,8.72-5.1,12.82c-1.41,4.92-.91,10.49-0.91,12.9s-0.55,19.11-.55,19.11-3.37,34.68-6.8,44.87c-2.94,8.72-9.23,22.92-13,27.31-3.26,3.76-6.22,4.1-8.2,4.1-4.47,0-7.1-6.15-8.42-12.74s-4-28.41-4-28.41-2.23-22.83-4.76-29.09-5.82-16.8-17-16.8h-0.18c-11.2,0-14.5,10.54-17,16.8s-4.76,29.09-4.76,29.09-2.71,21.82-4,28.41-4,12.74-8.42,12.74c-2,0-4.61-.66-8.2-4.1s-10.59-18.11-13.42-26.87c-3.93-12.19-6.43-45.31-6.43-45.31s-0.55-16.69-.55-19.11,0.33-8.29-.77-12.41-5.24-13.31-5.24-13.31S101.42,145.9,99,139.31s-3.3-21.7-2.56-28.3a48.28,48.28,0,0,1,13.11-27.38c9.15-9.59,23.65-11.39,28.63-11.31s14.2,2.53,17.1,3.62a145.55,145.55,0,0,0,14.57,5.16C175,82.45,177.09,82.23,177.09,82.23Z"/></svg>