<svg xmlns="http://www.w3.org/2000/svg" viewBox="0 0 354 354"><title>doctor</title><path d="M283.81,272.37l-10.33-49.11a34.2,34.2,0,0,0-18.4-23.66l-29-14.22a45.59,45.59,0,0,1,4.56,13.31c1.16,7.61,1.69,27.77,1.53,30.28a14.79,14.79,0,1,1-7.32-.28,193.88,193.88,0,0,0-1.69-32.11c-0.75-5.86-4.26-12.85-5.62-15.4l-9.82-4.82V167a75,75,0,0,0,11.2-21.1s10-8.29,8.67-25.12c0,0-.5-5-5.17-5.67,0,0,9.17-40.17-19.67-48.83,0,0-5.67-10.17-26.33-10S134,65.11,131,85.95s-1.12,26,0,29.5c0,0-4.08-.79-4.63,6.29s2.29,16.25,4.79,19.08,4.33,5.08,4.33,5.08a71.61,71.61,0,0,0,10.8,21.67v9.2l-11.75,5.67h0s-8.62,19-7.87,45.45c0,0,6.94.14,13,6.58,4.76,5.05,7.75,17.88,8.19,22.06s1.06,9.5,0,13.5-5.94,6.25-9.62,6.69-5.44.75-7.31-1.06-0.64-4.65.63-5.62,6.13-.25,7.56-0.31a3,3,0,0,0,2.81-2.06c0.5-1.25.31-2.37,0-6.87a60.34,60.34,0,0,0-3.62-15.44c-1.87-5.06-6.87-11.44-14.62-10.81S113,238.9,110.58,246c-2.6,7.73-.9,15.7-0.52,20.82s3.38,5.72,5.63,5,4.63-1.69,6.81-.62,1.89,4.38,1,5.31-2.94,2.63-10.5,2.06-8.66-5.21-9.12-8.25-3.56-21.06,1.88-30.38a26.85,26.85,0,0,1,15.07-12c-0.75-26.46,6.56-42,6.56-42h0L98.71,199.7a34.2,34.2,0,0,0-18.8,24.75l-8.66,48.21a8.79,8.79,0,0,0,5.7,9.84C89.51,287,120.14,295.11,177,295.11c56.51,0,88-8.14,101.06-12.62A8.79,8.79,0,0,0,283.81,272.37ZM140.26,140.14a34.2,34.2,0,0,1-3.88-3.95c-2.13-2.55-4-11.6-1.35-14.13,1.43-1.38,4.09.34,4.09,0.34s-0.28-18.56,7.66-24.69c0,0,36.31-1.94,48.81-14.94,0,0,3.33,7.58,7.83,11.58s8.63,11.25,9.29,14.88,1.54,13.29,1.54,13.29,3.15-1,4.08-.29c5.67,4.29-2.69,16.09-4.86,18.18a4.28,4.28,0,0,0-1.15,1.91c-1.79,6.24-11.47,35.33-35.87,35.33-25.09,0-34.77-35.31-34.77-35.31A4.7,4.7,0,0,0,140.26,140.14Zm38.15,88.35a1.57,1.57,0,0,1-2.81,0l-22.22-44.37V175.3a34.53,34.53,0,0,0,23.08,8.81c10,0,18.05-4.09,24.3-9.58v9.58Z"/><circle cx="228.25" cy="242.95" r="7.75"/></svg>