<svg xmlns="http://www.w3.org/2000/svg" viewBox="0 0 354 354"><title>editLight</title><path d="M257.3,286.6H185.9a9.1,9.1,0,0,1,0-18.1h71.5A9.1,9.1,0,0,1,257.3,286.6Z"/><path d="M262.4,94L241.1,75.6a34.2,34.2,0,0,0-48.3,3.7l-92.7,108a31.7,31.7,0,0,0-7.1,14.8L79,276.5a8.5,8.5,0,0,0,11.2,9.6l71.4-25.1a31.8,31.8,0,0,0,13.6-9.3l91.2-106.2A36.6,36.6,0,0,0,262.4,94ZM99.9,263.5l9-48.1,36.2,32.2Zm62.6-24.7-46.8-41.7,73-85,45.7,43Zm90.1-105-6.4,7.5-45.7-43,6.1-7.1a16.1,16.1,0,0,1,12.2-5.6,15.9,15.9,0,0,1,10.5,3.9l21.4,18.3A18.5,18.5,0,0,1,252.6,133.8Z"/></svg>