<svg xmlns="http://www.w3.org/2000/svg" viewBox="0 0 354 354"><defs><style>.a{fill:none;stroke-linecap:round;stroke-linejoin:round;stroke-width:18px;}.a,.b{stroke:#000;}.b{fill:#fff;stroke-miterlimit:10;stroke-width:16px;}</style></defs><title>emo_happy_light</title><path d="M177,325.7C95,325.7,28.3,259,28.3,177S95,28.3,177,28.3,325.7,95,325.7,177,259,325.7,177,325.7Zm0-275.4A126.7,126.7,0,1,0,303.7,177,126.8,126.8,0,0,0,177,50.3Z"/><polyline class="a" points="119.6 125.8 157.1 142.1 119.6 159.1"/><polyline class="a" points="242.1 125.8 204.5 142.1 242.1 159.1"/><path class="b" d="M104.9,190.3a11.1,11.1,0,0,0-10.6,14.6,90.5,90.5,0,0,0,170.8,0,11.1,11.1,0,0,0-10.6-14.6H104.9Z"/></svg>