<svg id="Layer_1" data-name="Layer 1" xmlns="http://www.w3.org/2000/svg" viewBox="0 0 354 354"><title>emo_bad_light</title><path d="M238.84,245.74a7.83,7.83,0,0,1-7.14-4.61,56.82,56.82,0,0,0-103.07-1.19,7.83,7.83,0,0,1-14.12-6.75A72.47,72.47,0,0,1,246,234.7,7.83,7.83,0,0,1,238.84,245.74Z"/><path d="M177,312.3c-74.6,0-135.3-60.7-135.3-135.3S102.4,41.7,177,41.7,312.3,102.4,312.3,177,251.6,312.3,177,312.3Zm0-250.7a115.35,115.35,0,1,1,0,.1V61.6Z"/><circle cx="127.25" cy="134.21" r="20.63"/><circle cx="231.42" cy="134.21" r="20.63"/></svg>