<svg xmlns="http://www.w3.org/2000/svg" viewBox="0 0 354 354"><title>emo_bad_light</title><path d="M177,325.7C95,325.7,28.3,259,28.3,177S95,28.3,177,28.3,325.7,95,325.7,177,259,325.7,177,325.7Zm0-275.4A126.7,126.7,0,1,0,303.7,177,126.8,126.8,0,0,0,177,50.3Z"/><path d="M247.7,249.8a9,9,0,0,1-8.2-5.3,65.4,65.4,0,0,0-118.6-1.4,9,9,0,0,1-16.2-7.8,83.4,83.4,0,0,1,151.2,1.7A9,9,0,0,1,247.7,249.8Z"/><ellipse cx="127.3" cy="130.2" rx="15.2" ry="26"/><ellipse cx="231.4" cy="130.2" rx="15.2" ry="26"/></svg>