<svg id="Layer_1" data-name="Layer 1" xmlns="http://www.w3.org/2000/svg" viewBox="0 0 354 354"><title>emo_happy_light</title><path d="M177,325.67C95,325.67,28.33,259,28.33,177S95,28.33,177,28.33,325.67,95,325.67,177,259,325.67,177,325.67ZM177,50.3A126.7,126.7,0,1,0,303.7,177,126.84,126.84,0,0,0,177,50.3Z"/><path d="M119.56,168.13a9,9,0,0,1-3.72-17.2l19-8.62L116,134.1a9,9,0,0,1,7.17-16.51l37.54,16.29a9,9,0,0,1,.13,16.45l-37.54,17A9,9,0,0,1,119.56,168.13Z"/><path d="M242.07,168.13a9,9,0,0,1-3.71-.8l-37.54-17a9,9,0,0,1,.13-16.45l37.54-16.29a9,9,0,1,1,7.17,16.51l-18.91,8.21,19,8.62A9,9,0,0,1,242.07,168.13Z"/><path d="M179.75,273.35A98.74,98.74,0,0,1,86.8,207.56a18.86,18.86,0,0,1,2.42-17.15,19.26,19.26,0,0,1,15.69-8.13H254.58a19.26,19.26,0,0,1,15.69,8.13,18.87,18.87,0,0,1,2.42,17.15A98.74,98.74,0,0,1,179.75,273.35Zm-74.83-75.07a3.21,3.21,0,0,0-2.63,1.37,2.75,2.75,0,0,0-.4,2.58,82.55,82.55,0,0,0,155.72,0,2.75,2.75,0,0,0-.39-2.58,3.21,3.21,0,0,0-2.63-1.37H104.92Z"/></svg>