<svg xmlns="http://www.w3.org/2000/svg" viewBox="0 0 383.9 292.29"><title>eyeclose</title><path d="M191.9,0h0a11,11,0,0,1,11,11V44.8a11,11,0,0,1-11,11h0a11,11,0,0,1-11-11V11A11,11,0,0,1,191.9,0Z" transform="translate(0 0)"/><path d="M231,259.43A78.75,78.75,0,0,1,126.54,147.18L96.37,114.76c-34.87,17.59-65,41.78-91.77,70.94L0,191a29.86,29.86,0,0,0,2.9,3.5c31.6,35.5,68.7,63.4,112.7,81.8C160.4,295,206,297.75,252.16,282.21Zm-123.57-12c-13.3-3.2-60.6-37.8-77-56.4a309.74,309.74,0,0,1,77.5-57c-23,38.2-23,75.8-.5,113.4v0Z" transform="translate(0 0)"/><path d="M381,187.7c-29.3-33.1-63.7-59.4-103.8-78-47.8-22.08-96.3-26.18-145.49-9.81l21.19,22.79A78.73,78.73,0,0,1,270.7,191v0.1a78.26,78.26,0,0,1-13.35,43.84l30.21,32.47c34.6-17.39,64.66-41.55,91.44-70.6,1.6-1.7,3.3-4.1,4.9-5.8A34,34,0,0,1,381,187.7ZM275.9,248.2c23-38.2,23.1-75.8,0-114.2,29.3,15,54.7,34.1,77.7,57.1A307.07,307.07,0,0,1,275.9,248.2Z" transform="translate(0 0)"/><path d="M101.65,94h0a11,11,0,0,1,15.55.56h0l165.58,178a11,11,0,0,1-.56,15.55h0a11,11,0,0,1-15.55-.56h0l-165.58-178A11,11,0,0,1,101.65,94h0Z" transform="translate(0 0)"/><path d="M23.1,67.4h0a11.4,11.4,0,0,1,15.8,2.2l20.3,27a11.19,11.19,0,0,1-2.25,15.66l0,0h0a11.26,11.26,0,0,1-15.7-2.2l-20.3-27A11.26,11.26,0,0,1,23.1,67.4Z" transform="translate(0 0)"/><path d="M326.9,112.3h0a11.2,11.2,0,0,1-2.32-15.67l0,0,20.2-27a11.31,11.31,0,0,1,15.8-2.3h0A11.2,11.2,0,0,1,362.92,83l0,0-20.2,27A11.32,11.32,0,0,1,326.9,112.3Z" transform="translate(0 0)"/><path d="M109.3,62.3L96.8,37.4a11.27,11.27,0,0,1,5-15.1h0a11.27,11.27,0,0,1,15.1,5l12.4,24.8a11.3,11.3,0,0,1-5,15.1h0a11,11,0,0,1-14.86-4.62Z" transform="translate(0 0)"/><path d="M281.8,22.4h0a11.19,11.19,0,0,1,5.05,15l-0.05.1L274.4,62.4a11.18,11.18,0,0,1-15,5h0a11.19,11.19,0,0,1-5.05-15l0.05-.1,12.4-24.9A11.21,11.21,0,0,1,281.8,22.4Z" transform="translate(0 0)"/><path d="M224.57,199.7a33.73,33.73,0,0,0-32.47-42.4,34.22,34.22,0,0,0-6.41.61Z" transform="translate(0 0)"/><path d="M159.32,182.42a33.72,33.72,0,0,0-1.12,8.28v0.2a33.75,33.75,0,0,0,40,33.32Z" transform="translate(0 0)"/></svg>