<svg xmlns="http://www.w3.org/2000/svg" viewBox="0 0 390.17 250.33"><title>eye_close_bold</title><path d="M225,297.83s0-.06,0-0.09,0-.06,0-0.09v0.19Z" transform="translate(-225 -176.82)"/><path d="M615.17,297.73s0,0.06,0,.09v-0.19S615.17,297.7,615.17,297.73Z" transform="translate(-225 -176.82)"/><path d="M420,181.61a209,209,0,0,0-70.74,12.45L381,225.77A82.21,82.21,0,0,1,492.89,337.42l42.48,42.41c50.31-31,79.61-73.32,79.8-82.1C614.86,283.52,538.43,181.61,420,181.61Z" transform="translate(-225 -176.82)"/><path d="M457.78,321.44a43.85,43.85,0,0,0-60.7-60.59L318.7,182.61a19.8,19.8,0,0,0-28,0h0a19.8,19.8,0,0,0,0,28l8.49,8.48c-46.9,30.62-74,70.15-74.21,78.61,0.31,14.21,76.57,116.12,195,116.12a208.09,208.09,0,0,0,64.09-10.19l17.73,17.7a19.8,19.8,0,0,0,28,0h0a19.8,19.8,0,0,0,0-28Zm-36.83,58.41A82.2,82.2,0,0,1,345.4,265.22l31.7,31.65c0,0.26,0,.51,0,0.77a43.86,43.86,0,0,0,43.86,43.86l0.85,0,31.71,31.65A81.79,81.79,0,0,1,420.95,379.85Z" transform="translate(-225 -176.82)"/></svg>