<svg id="Layer_1" data-name="Layer 1" xmlns="http://www.w3.org/2000/svg" viewBox="0 0 354 354"><title>eyeopen</title><path d="M327.23,184c-1.06,1.43-2.69,3.22-3.91,4.55-27.58,29.93-59.64,53.26-98.42,66.55-36.39,12.46-72.25,10.31-107.5-4.38C83,236.43,54,214.55,29.21,186.81,28.52,186,27.49,185,26.77,184l3.78-4.14c25.62-28,55.39-50.1,90.93-64,41.44-16.23,82.15-13.92,122.21,4.61,31.39,14.52,58.27,35.13,81.19,61C325.52,182.22,326.77,183.66,327.23,184ZM177.09,122.57a61.58,61.58,0,1,0,61.49,61.67s0-.08,0-0.13a61.67,61.67,0,0,0-61.51-61.56h0Zm65.61,16.92c18,30,18,59.43,0,89.31a238.62,238.62,0,0,0,60.74-44.66,238.87,238.87,0,0,0-60.77-44.66h0Zm-131.37,0a242.1,242.1,0,0,0-60.59,44.57c12.79,14.56,49.83,41.59,60.21,44.07-17.62-29.36-17.63-58.73.38-88.66v0Z"/><rect x="168.41" y="34.72" width="17.24" height="43.62" rx="8.62" ry="8.62"/><path d="M45,87.45l0.14-.1a8.7,8.7,0,0,1,12.19,1.72h0L73.27,110.3a8.7,8.7,0,0,1-1.72,12.18l-0.14.11a8.7,8.7,0,0,1-12.19-1.71h0L43.26,99.66A8.7,8.7,0,0,1,45,87.47Z"/><path d="M282.63,122.59l-0.14-.1a8.7,8.7,0,0,1-1.73-12.18l15.93-21.24a8.71,8.71,0,0,1,12.19-1.74l0.14,0.1a8.7,8.7,0,0,1,1.74,12.18h0l-15.93,21.24a8.71,8.71,0,0,1-12.2,1.74h0Z"/><path d="M112.42,83.5L102.63,64a8.7,8.7,0,0,1,3.91-11.67h0l0.16-.08a8.7,8.7,0,0,1,11.67,3.91l9.79,19.55a8.7,8.7,0,0,1-3.91,11.67h0l-0.16.08A8.7,8.7,0,0,1,112.42,83.5Z"/><path d="M247.22,52.23l0.16,0.08A8.7,8.7,0,0,1,251.3,64h0L241.5,83.52a8.7,8.7,0,0,1-11.67,3.91l-0.16-.08a8.7,8.7,0,0,1-3.92-11.66v0l9.79-19.55A8.7,8.7,0,0,1,247.22,52.23Z"/><path d="M177.14,157.75A26.38,26.38,0,1,1,150.61,184v-0.15A26.44,26.44,0,0,1,177.14,157.75ZM185.8,184a8.79,8.79,0,1,0-8.69,8.89h0.08A8.89,8.89,0,0,0,185.8,184Z"/></svg>