<svg xmlns="http://www.w3.org/2000/svg" viewBox="0 0 384.23 292.29"><title>eyeopen</title><path d="M384.28,191c-1.36,1.83-3.44,4.12-5,5.82C344,235,303,264.89,253.42,281.89c-46.54,15.93-92.4,13.18-137.48-5.6C71.94,257.95,34.81,230,3.17,194.5c-0.88-1-2.2-2.37-3.12-3.55l4.83-5.29c32.76-35.82,70.84-64.07,116.28-81.88,53-20.75,105-17.8,156.29,5.9,40.14,18.57,74.52,44.92,103.83,78C382.1,188.63,383.7,190.47,384.28,191Zm-192-78.62a78.75,78.75,0,1,0,78.63,78.87q0-.08,0-0.16a78.87,78.87,0,0,0-78.66-78.72h0ZM276.18,134c23.06,38.41,23,76,0,114.21,29.37-15,54.72-34.14,77.68-57.11-23-23-48.35-42.08-77.71-57.11h0Zm-168,0a309.6,309.6,0,0,0-77.49,57c16.35,18.62,63.72,53.19,77,56.36-22.53-37.55-22.54-75.11.48-113.38v0Z" transform="translate(-0.05 0)"/><rect x="181.13" width="22.05" height="55.78" rx="11.02" ry="11.02"/><path d="M23.35,67.43l0.18-.13a11.13,11.13,0,0,1,15.59,2.2h0L59.51,96.66a11.13,11.13,0,0,1-2.2,15.58l-0.18.14a11.13,11.13,0,0,1-15.59-2.19v0L21.14,83a11.13,11.13,0,0,1,2.17-15.59Z" transform="translate(-0.05 0)"/><path d="M327.25,112.37l-0.18-.13a11.13,11.13,0,0,1-2.21-15.58L345.23,69.5a11.14,11.14,0,0,1,15.59-2.23L361,67.4A11.13,11.13,0,0,1,363.23,83h0l-20.37,27.16a11.14,11.14,0,0,1-15.6,2.22h0Z" transform="translate(-0.05 0)"/><path d="M109.58,62.38l-12.52-25a11.13,11.13,0,0,1,5-14.93h0l0.2-.1a11.13,11.13,0,0,1,14.92,5l12.52,25a11.13,11.13,0,0,1-5,14.93h0l-0.2.1A11.13,11.13,0,0,1,109.58,62.38Z" transform="translate(-0.05 0)"/><path d="M282,22.39l0.2,0.1a11.12,11.12,0,0,1,5,14.91h0l-12.52,25a11.13,11.13,0,0,1-14.92,5l-0.2-.1a11.12,11.12,0,0,1-5-14.91v0l12.52-25A11.13,11.13,0,0,1,282,22.39Z" transform="translate(-0.05 0)"/><path d="M192.25,112.33A78.75,78.75,0,1,1,113.42,191v-0.1A78.87,78.87,0,0,1,192.25,112.33Zm0.1,45a33.74,33.74,0,1,0,33.56,34.09,33.74,33.74,0,0,0-33.56-34.09h0Z" transform="translate(-0.05 0)" fill="#fff"/><path d="M276.15,134c29.36,15,54.71,34.13,77.68,57.1-23,23-48.31,42.07-77.68,57.11C299.16,210,299.21,172.39,276.15,134Z" transform="translate(-0.05 0)" fill="#fff"/><path d="M108.17,134c-23,38.27-23,75.83-.53,113.34-13.24-3.17-60.62-37.74-77-56.36A309.6,309.6,0,0,1,108.17,134Z" transform="translate(-0.05 0)" fill="#fff"/><path d="M192.34,157.34a33.74,33.74,0,1,1-33.92,33.56q0-.09,0-0.19A33.81,33.81,0,0,1,192.34,157.34Zm11.08,33.6a11.24,11.24,0,1,0-11.11,11.37h0.11A11.37,11.37,0,0,0,203.42,190.94Z" transform="translate(-0.05 0)"/><path d="M203.42,190.94A11.24,11.24,0,1,1,192,179.84h0.1A11.38,11.38,0,0,1,203.42,190.94Z" transform="translate(-0.05 0)" fill="#fff"/></svg>