<svg xmlns="http://www.w3.org/2000/svg" viewBox="0 0 390.17 232.24"><title>eye_open_bold</title><path d="M615.17,297.64s0,0.06,0,.09,0,0.06,0,.09v-0.19Z" transform="translate(-225 -181.61)"/><path d="M225,297.83s0-.06,0-0.09,0-.06,0-0.09v0.19Z" transform="translate(-225 -181.61)"/><path d="M420,181.61c-118.43,0-194.68,101.91-195,116.12,0.31,14.21,76.57,116.12,195,116.12S614.86,311.94,615.17,297.73C614.86,283.52,538.43,181.61,420,181.61Zm0.95,198.24a82.21,82.21,0,1,1,82.21-82.21A82.21,82.21,0,0,1,420.95,379.85Z" transform="translate(-225 -181.61)"/><circle cx="195.94" cy="116.03" r="43.86"/></svg>