<svg xmlns="http://www.w3.org/2000/svg" viewBox="0 0 354 354"><title>HistoryLigh</title><path d="M250.6,199.6A59.4,59.4,0,1,0,310,259.1h0A59.4,59.4,0,0,0,250.6,199.6ZM281.3,261a7.1,7.1,0,0,1-7.1,7.1H249.7a7.3,7.3,0,0,1-7.3-7.3V222.8a7.1,7.1,0,1,1,14.1,0v31h17.9a7.1,7.1,0,0,1,7.1,7.1h-0.1Z"/><path d="M217.9,35.5H121.2a77.3,77.3,0,0,0-77.3,77.3h0V238.2a76.9,76.9,0,0,0,76.9,76.9h73.6a1.2,1.2,0,0,0,.8-1.9,77.4,77.4,0,0,1,94.8-120.8,1.4,1.4,0,0,0,2.2-1.3V109.7A74.2,74.2,0,0,0,217.9,35.5ZM177.4,191.9H109.1a13.6,13.6,0,0,1-13.5-11.2,13.4,13.4,0,0,1,11-15.4l2.1-.2H177a13.6,13.6,0,0,1,13.5,11.2,13.4,13.4,0,0,1-11,15.4Zm64.8-69.5A13.4,13.4,0,0,1,229,135.8H108.7a13.4,13.4,0,0,1-13.4-13.4h0a13.4,13.4,0,0,1,13.4-13.4H229a13.4,13.4,0,0,1,13.4,13.4h-0.1Z"/></svg>