<svg xmlns="http://www.w3.org/2000/svg" viewBox="0 0 354 354"><title>HistoryLigh</title><path d="M234.2,194.6a46.2,46.2,0,1,0,46.2,46.2A46.2,46.2,0,0,0,234.2,194.6Zm23.9,47.7a5.5,5.5,0,0,1-5.5,5.5H233.5a5.7,5.7,0,0,1-5.7-5.7V212.6a5.5,5.5,0,0,1,11,0v24.1h13.9a5.5,5.5,0,0,1,5.5,5.5h0Z"/><path d="M208.8,67H133.6a60.1,60.1,0,0,0-60.1,60.1v97.5a59.8,59.8,0,0,0,59.8,59.8h57.2a0.9,0.9,0,0,0,.6-1.5,60.2,60.2,0,0,1,73.7-93.9,1.1,1.1,0,0,0,1.7-1V124.7A57.7,57.7,0,0,0,208.8,67ZM177.3,188.6H124.2a10.6,10.6,0,0,1-10.5-8.7,10.4,10.4,0,0,1,10.2-12.1H177a10.6,10.6,0,0,1,10.5,8.7A10.4,10.4,0,0,1,177.3,188.6Zm50.4-54A10.4,10.4,0,0,1,217.4,145H123.9a10.4,10.4,0,0,1-10.4-10.4h0a10.4,10.4,0,0,1,10.4-10.4h93.5a10.4,10.4,0,0,1,10.4,10.4h0Z"/></svg>