<svg xmlns="http://www.w3.org/2000/svg" viewBox="0 0 240 267.63"><title>homeLight</title><path d="M294.52,91l-83.7-69a29.79,29.79,0,0,0-37.38-.27L90.31,88.27a48.18,48.18,0,0,0-18.17,37.8v130.8a26.1,26.1,0,0,0,26.07,26.07H286.07a26.1,26.1,0,0,0,26.07-26.07V128.4A48.25,48.25,0,0,0,294.52,91ZM224.14,262.95h-64V194.68a5.08,5.08,0,0,1,5.07-5.07h53.86a5.08,5.08,0,0,1,5.07,5.07v68.26Zm68-6.07a6.08,6.08,0,0,1-6.07,6.07H244.14V194.68a25.1,25.1,0,0,0-25.07-25.07H165.21a25.1,25.1,0,0,0-25.07,25.07v68.26H98.21a6.08,6.08,0,0,1-6.07-6.07V126.08a28.27,28.27,0,0,1,10.66-22.19l83.12-66.5a9.69,9.69,0,0,1,12.17.09l83.7,69a28.32,28.32,0,0,1,10.34,21.93V256.88Z" transform="translate(-72.14 -15.31)"/></svg>