<?xml version="1.0" encoding="utf-8"?>
<!-- Generator: Adobe Illustrator 19.2.1, SVG Export Plug-In . SVG Version: 6.00 Build 0)  -->
<svg version="1.1" id="Layer_1" xmlns="http://www.w3.org/2000/svg" xmlns:xlink="http://www.w3.org/1999/xlink" x="0px" y="0px"
	 viewBox="0 0 354 354" style="enable-background:new 0 0 354 354;" xml:space="preserve">
<path d="M275.5,112.8l-83.7-69c-10.8-8.9-26.5-9-37.4-0.3L71.3,110c-11.5,9.2-18.2,23-18.2,37.8v130.8c0,14.4,11.7,26.1,26.1,26.1
	h187.9c14.4,0,26.1-11.7,26.1-26.1V150.1C293.1,135.6,286.7,122,275.5,112.8z M205.1,284.7h-64v-68.3c0-2.8,2.3-5.1,5.1-5.1h53.9
	c2.8,0,5.1,2.3,5.1,5.1V284.7z M273.1,278.6c0,3.3-2.7,6.1-6.1,6.1h-41.9v-68.3c0-13.8-11.2-25.1-25.1-25.1h-53.9
	c-13.8,0-25.1,11.2-25.1,25.1v68.3H79.2c-3.3,0-6.1-2.7-6.1-6.1V147.8c0-8.7,3.9-16.8,10.7-22.2l83.1-66.5c1.8-1.4,3.9-2.1,6-2.1
	c2.2,0,4.4,0.7,6.1,2.2l83.7,69c6.6,5.4,10.3,13.4,10.3,21.9V278.6z"/>
</svg>
