<svg xmlns="http://www.w3.org/2000/svg" viewBox="0 0 354 354"><title>infoLight</title><path d="M145.84,160.8a0.61,0.61,0,0,1,.34-0.45c3.08-1.44,30.34-13.76,44.48-3.07,15,11.33-2,53-2,53s-8.29,24,1.71,26a33.6,33.6,0,0,0,17-1.07,0.53,0.53,0,0,1,.68.63l-1.61,6.46a0.52,0.52,0,0,1-.32.37c-2.39.91-20.86,7.81-29.12,7.24-8.09-.56-33.33-1.33-17.67-43.67s1.84-40.56-3-40.17a66.71,66.71,0,0,0-11,2.36,0.62,0.62,0,0,1-.78-0.71Z"/><circle cx="191.86" cy="120.77" r="18.25"/><path d="M177,31.13A145.87,145.87,0,1,0,322.87,177,145.87,145.87,0,0,0,177,31.13Zm0,278.68A132.81,132.81,0,1,1,309.81,177,132.81,132.81,0,0,1,177,309.81Z"/></svg>