<svg xmlns="http://www.w3.org/2000/svg" viewBox="0 0 354 354"><title>infoLight</title><path d="M145.5,161.5a0.6,0.6,0,0,1,.3-0.4c3.1-1.4,30.3-13.8,44.5-3.1s-2,53-2,53-8.3,24,1.7,26a33.6,33.6,0,0,0,17-1.1,0.5,0.5,0,0,1,.7.6l-1.6,6.5a0.5,0.5,0,0,1-.3.4c-2.4.9-20.9,7.8-29.1,7.2S143.3,249.4,159,207s1.8-40.6-3-40.2a66.7,66.7,0,0,0-11,2.4,0.6,0.6,0,0,1-.8-0.7Z"/><circle cx="191.5" cy="121.5" r="18.2"/><path d="M177,312.3c-74.6,0-135.3-60.7-135.3-135.3S102.4,41.7,177,41.7,312.3,102.4,312.3,177,251.6,312.3,177,312.3Zm0-250.7A115.3,115.3,0,1,0,292.3,177,115.5,115.5,0,0,0,177,61.7Z"/></svg>