<svg xmlns="http://www.w3.org/2000/svg" viewBox="0 0 354 354"><title>instagramBold</title><path d="M247.66,125.62a30,30,0,0,0-17.2-17.2c-3.19-1.24-8-2.72-16.83-3.12-9.56-.44-12.42-0.53-36.62-0.53s-27.07.09-36.63,0.53c-8.84.4-13.64,1.88-16.83,3.12a30,30,0,0,0-17.2,17.2c-1.24,3.19-2.72,8-3.12,16.83-0.44,9.56-.53,12.42-0.53,36.63s0.09,27.07.53,36.63c0.4,8.84,1.88,13.64,3.12,16.83a30,30,0,0,0,17.2,17.2c3.19,1.24,8,2.72,16.83,3.12,9.56,0.44,12.42.53,36.63,0.53s27.07-.09,36.63-0.53c8.84-.4,13.64-1.88,16.83-3.12a30,30,0,0,0,17.2-17.2c1.24-3.19,2.72-8,3.12-16.83,0.44-9.56.53-12.42,0.53-36.62s-0.09-27.07-.53-36.63C250.37,133.61,248.9,128.81,247.66,125.62ZM177,225.62a46.54,46.54,0,1,1,46.54-46.54A46.54,46.54,0,0,1,177,225.62Zm48.38-84a10.88,10.88,0,1,1,10.88-10.88A10.88,10.88,0,0,1,225.38,141.57Z" fill="#000100"/><circle cx="177" cy="179.08" r="30.21" fill="#000100"/><path d="M177,35.12a144,144,0,1,0,144,144A144,144,0,0,0,177,35.12Zm90.09,181.32c-0.44,9.65-2,16.24-4.21,22A46.35,46.35,0,0,1,236.37,265c-5.77,2.24-12.35,3.77-22,4.21s-12.75.55-37.37,0.55-27.7-.1-37.37-0.55-16.24-2-22-4.21a46.35,46.35,0,0,1-26.51-26.51c-2.24-5.77-3.77-12.35-4.21-22s-0.55-12.75-.55-37.37,0.1-27.7.55-37.37,2-16.24,4.21-22A46.35,46.35,0,0,1,117.63,93.2c5.77-2.24,12.35-3.77,22-4.21s12.75-.55,37.37-0.55,27.7,0.1,37.37.55,16.24,2,22,4.21a46.35,46.35,0,0,1,26.51,26.51c2.24,5.77,3.77,12.35,4.21,22s0.55,12.75.55,37.37S267.53,206.78,267.09,216.44Z" fill="#000100"/></svg>