<svg xmlns="http://www.w3.org/2000/svg" viewBox="0 0 354 354"><title>keyBold</title><path d="M233.19,29.05c-52.78,0-95.82,43.47-95.34,96.24a95.24,95.24,0,0,0,4.42,27.88,2.69,2.69,0,0,1-.65,2.72L35.48,261.78a9.48,9.48,0,0,0-2.79,6.71v47.69a8.76,8.76,0,0,0,8.76,8.76H89.88a7.12,7.12,0,0,0,5-2.09l14.65-14.65a5.53,5.53,0,0,0,1.59-4.46L110,292a2.41,2.41,0,0,1,2.2-2.64l15.26-1.26a6.54,6.54,0,0,0,4.08-1.89l2.28-2.28a8.77,8.77,0,0,0,2.55-5.57l1-14.07a2.42,2.42,0,0,1,2.7-2.23l11.35,1.38a5.32,5.32,0,0,0,4.4-1.52l2.92-2.92a4.1,4.1,0,0,0,1.2-2.9V240.57a1.93,1.93,0,0,1,1.9-1.93l16-.28a4.07,4.07,0,0,0,2.8-1.19l21.05-21.05a2.94,2.94,0,0,1,3-.71,95.25,95.25,0,0,0,27.74,4.35c52.76,0.45,96.17-42.59,96.17-95.35A95.35,95.35,0,0,0,233.19,29.05Zm24.49,97.2A26.22,26.22,0,1,1,283.9,100,26.22,26.22,0,0,1,257.68,126.25Z" fill="#020202"/></svg>