<?xml version="1.0" encoding="utf-8"?>
<!-- Generator: Adobe Illustrator 19.2.1, SVG Export Plug-In . SVG Version: 6.00 Build 0)  -->
<svg version="1.1" id="Layer_1" xmlns="http://www.w3.org/2000/svg" xmlns:xlink="http://www.w3.org/1999/xlink" x="0px" y="0px"
	 viewBox="0 0 354 354" style="enable-background:new 0 0 354 354;" xml:space="preserve">
<path d="M177,33.2c-80.6,0-145.9,65.3-145.9,145.9S96.4,324.9,177,324.9s145.9-65.3,145.9-145.9S257.6,33.2,177,33.2z M200.2,189.3
	v52.2c0,12.6-10.2,22.8-22.8,22.8h-0.2c-12.6,0-22.8-10.2-22.8-22.8v-51.8c-14.7-8-24.7-23.6-24.7-41.6c0-26.1,21.2-47.3,47.3-47.3
	c26.1,0,47.3,21.2,47.3,47.3C224.3,165.7,214.6,181.1,200.2,189.3z"/>
</svg>
