<svg xmlns="http://www.w3.org/2000/svg" viewBox="0 0 354 354"><title>love_light_round</title><path d="M177,325.7C95,325.7,28.3,259,28.3,177S95,28.3,177,28.3,325.7,95,325.7,177,259,325.7,177,325.7Zm0-275.4A126.7,126.7,0,1,0,303.7,177,126.8,126.8,0,0,0,177,50.3Z"/><path d="M87.4,162.1V154c0.1-.6.2-1.1,0.3-1.7a54.8,54.8,0,0,1,10.3-27.9c8.6-11.7,20.2-18.4,34.7-19.9,16.3-1.6,29.6,4.5,40.4,16.5,1.3,1.5,2.6,3.1,3.8,4.5,2.7-2.9,5.1-5.8,7.8-8.4,13.6-12.5,29.5-16.1,47-10.4s28.4,18.9,33.1,36.9c0.9,3.4,1.2,6.9,1.8,10.3v8.1a9,9,0,0,0-.3,1.2c-0.9,10.6-4.8,20.2-10.6,29.1a124.9,124.9,0,0,1-21.8,25c-16.4,14.7-33.1,29.1-49.8,43.5-4.7,4.1-9.9,3.9-14.9-.3q-19.2-16.5-38.3-33c-10.7-9.3-21.1-19-29.6-30.4-5.6-7.5-10-15.6-12.3-24.7C88.4,169,88,165.5,87.4,162.1Z"/></svg>