<svg xmlns="http://www.w3.org/2000/svg" viewBox="0 0 354 354"><title>moon_light</title><path d="M134.4,77.1a138.2,138.2,0,0,0,.4,45.1c9.7,55.8,55.5,101.1,111.5,110.2a139.9,139.9,0,0,0,22.4,1.8l7.2-.2a110.8,110.8,0,0,1-94.8,54.8h-0.8c-59.1,0-108.8-47.9-110.8-106.9A111.6,111.6,0,0,1,134.4,77.1M157.9,39l-2.5.2A141,141,0,0,0,39.4,183c2.6,74.9,66.1,135.9,140.9,135.9h1a140.9,140.9,0,0,0,132.4-95.8,16.9,16.9,0,0,0-20-22.1,105.3,105.3,0,0,1-25.1,3,109.3,109.3,0,0,1-17.5-1.4c-43.7-7.1-79.1-42-86.7-85.7a106,106,0,0,1,6-58.1c3.9-9.6-2.9-19.8-12.6-19.8h0Z"/></svg>