<svg xmlns="http://www.w3.org/2000/svg" viewBox="0 0 354 354"><title>notif_light</title><path d="M254.9,285.4H100.4a44.3,44.3,0,0,1-42.7-55.8C58,228.4,88.4,116.6,98.2,79.3,106.6,51.5,131,33.2,159,33.2h36c29,0,54,19,60.8,46.2,9.7,37.1,40.1,148.6,40.5,150.1h0a45,45,0,0,1-8.1,39.8A42.3,42.3,0,0,1,254.9,285.4ZM159,60.2c-16,0-30,10.6-34.8,26.4-9.7,36.9-40.1,148.9-40.4,150a16.7,16.7,0,0,0,2.9,14.8,17.3,17.3,0,0,0,13.8,6.9H253.5a15.9,15.9,0,0,0,13.6-5.8,17.9,17.9,0,0,0,3.1-15.8h0c-0.3-1.1-30.8-113.1-40.6-150.5-3.8-15.3-18.1-25.9-34.7-25.9H159Z"/><path d="M194.1,325H160.8a13.5,13.5,0,0,1,0-27h33.3A13.5,13.5,0,1,1,194.1,325Z"/></svg>