<svg xmlns="http://www.w3.org/2000/svg" viewBox="0 0 286.5 384.56"><title>padlock</title><path d="M528.95,255.29H517v-48a96.08,96.08,0,0,0-96.08-96.08h0a96.08,96.08,0,0,0-96.08,96.08v48H312.95a35.25,35.25,0,0,0-35.25,35.25v170a35.25,35.25,0,0,0,35.25,35.25h216a35.25,35.25,0,0,0,35.25-35.25v-170A35.25,35.25,0,0,0,528.95,255.29Zm-172.08-48a64.08,64.08,0,0,1,128.17,0v48H356.86v-48ZM437,379.93V416a15.75,15.75,0,0,1-15.75,15.75h-0.17A15.75,15.75,0,0,1,405.33,416V380.19A32.74,32.74,0,1,1,437,379.93Z" transform="translate(-277.69 -111.23)"/></svg>