<svg xmlns="http://www.w3.org/2000/svg" viewBox="0 0 354 354"><title>patologi</title><circle cx="112.56" cy="183.9" r="10.25"/><circle cx="125" cy="157.9" r="8.77"/><circle cx="119.27" cy="125.24" r="6.63"/><path d="M202.45,157.91a19.68,19.68,0,0,1,24.61-19.12l1.65-3A4.49,4.49,0,0,0,227,129.7L200.78,115a4.49,4.49,0,0,0-6.16,1.79l-31.08,58a5.77,5.77,0,0,0,2.11,7.67l0.6,0.36-6.12,11.81a2.79,2.79,0,0,0,1,3.68L177.49,208a2.79,2.79,0,0,0,3.8-.92l7.88-12.6,0.58,0.32a5.77,5.77,0,0,0,7.88-2.27l11.09-20.27A19.67,19.67,0,0,1,202.45,157.91Z"/><circle cx="222.2" cy="157.9" r="14.47"/><path d="M203,111l25.88,13.63,7.18-13.24a3.42,3.42,0,0,0-1.41-4.66L214.34,96a3.42,3.42,0,0,0-4.65,1.5Z"/><path d="M278.87,284.2H261.2a3.36,3.36,0,0,1-3.28-2.64l-5.3-26.47c-1.79-8.6-7.35-14.47-15-14.47-7.32,0-12.08,4.85-13.82,12.85l-6.23,27.76a3.36,3.36,0,0,1-3.25,2.66l-62.42.58a7,7,0,0,0-6.89,7v9.26a1.6,1.6,0,0,0,1.6,1.6H284.23a1.6,1.6,0,0,0,1.6-1.6v-9.53A7,7,0,0,0,278.87,284.2ZM237.61,261a5.91,5.91,0,1,1,5.91-5.91A5.91,5.91,0,0,1,237.61,261Z"/><path d="M235.71,143.05a67.7,67.7,0,0,1,23.45,119.23l-1.64-8.21A25.28,25.28,0,0,0,250.71,241a46.06,46.06,0,0,0-11-73.24A20,20,0,0,0,235.71,143.05Z"/><path d="M278.87,284.2H261.2a3.36,3.36,0,0,1-3.28-2.64l-5.3-26.47c-1.79-8.6-7.35-14.47-15-14.47-7.32,0-12.08,4.85-13.82,12.85l-6.23,27.76a3.36,3.36,0,0,1-3.25,2.66l-62.42.58a7,7,0,0,0-6.89,7v9.26a1.6,1.6,0,0,0,1.6,1.6H284.23a1.6,1.6,0,0,0,1.6-1.6v-9.53A7,7,0,0,0,278.87,284.2Z" fill="none" stroke="#000" stroke-miterlimit="10"/><path d="M145.13,248.16h58l14.72,9,0.59-2.63,0.47-2.11a25.4,25.4,0,0,1,3.37-8.39l-11-5.82v-1a2.87,2.87,0,0,0-2.87-2.87H145.13a2.87,2.87,0,0,0-2.87,2.88v8.13A2.88,2.88,0,0,0,145.13,248.16Z"/><path d="M194.88,229.28l-9.94-18.69a7.79,7.79,0,0,1-10,1.75L171.05,210l10.24,19.25h13.59Z"/><path d="M201.72,253.16h-11.5a16.77,16.77,0,0,1-2.33,6.23,17.14,17.14,0,0,1-14.64,7.89h-108a17.15,17.15,0,0,1-14.8-8.15,16.55,16.55,0,0,1-.2-16.75L98,157.9a35.22,35.22,0,0,0,4.53-17.28V93.18A1.23,1.23,0,0,1,103.73,92h34A1.23,1.23,0,0,1,139,93.18V141a35.25,35.25,0,0,0,4.12,16.51l15.5,29.13L160,184a10.76,10.76,0,0,1-.88-11.57l2.76-5.15-8.18-15.37A23.25,23.25,0,0,1,151,141V93.18A1.23,1.23,0,0,1,152.23,92h1.15a5,5,0,0,0,5-5V84.9a5,5,0,0,0-5-5H87.46a5,5,0,0,0-5,5V87a5,5,0,0,0,5,5h1.81a1.23,1.23,0,0,1,1.23,1.23v47.44a23.14,23.14,0,0,1-3,11.38L39.86,236.49a28.45,28.45,0,0,0,.43,28.93,29.28,29.28,0,0,0,25.16,13.86H173.12A29.27,29.27,0,0,0,198,265.87a28.76,28.76,0,0,0,4.3-12.37Z"/><path d="M145.13,253.16a7.88,7.88,0,0,1-7.87-7.87v-8.12a7.88,7.88,0,0,1,7.88-7.87H173.3L158,200.72l-0.65.35c-12,6.46-34,2.21-55-3.79a35,35,0,0,0-18.25-.4L56.41,245.82a9.46,9.46,0,0,0,.12,9.73,10.13,10.13,0,0,0,8.78,4.73h108A10.17,10.17,0,0,0,182,255.7a9.86,9.86,0,0,0,1.11-2.54H145.13Zm-57.25-3A5.21,5.21,0,1,1,93.08,245,5.21,5.21,0,0,1,87.87,250.2Zm27.35-18.63a8.19,8.19,0,1,1,8.19-8.19A8.19,8.19,0,0,1,115.22,231.57Z"/></svg>