<svg xmlns="http://www.w3.org/2000/svg" viewBox="0 0 354 354"><title>patologi</title><circle cx="161.9" cy="185.9" r="15.1"/><circle cx="186.7" cy="155.4" r="12.9"/><circle cx="170.6" cy="109.5" r="9.7"/><path d="M269.8,276.9l-15.6-27.6-20.7-38.6-1,.5c-17.6,9.5-49.9,3.2-80.8-5.6a51.4,51.4,0,0,0-26.8-.6L84.2,276.9a13.9,13.9,0,0,0,.2,14.3,14.9,14.9,0,0,0,12.9,6.9H256.7a14.9,14.9,0,0,0,12.9-6.9A13.9,13.9,0,0,0,269.8,276.9Zm-139.3,6.4a7.7,7.7,0,1,1,7.7-7.7A7.7,7.7,0,0,1,130.5,283.3Zm40.2-27.4a12,12,0,1,1,12-12A12,12,0,0,1,170.6,255.9Z"/><path d="M293.6,263.2L223.6,139a34,34,0,0,1-4.4-16.7V52.6a1.8,1.8,0,0,1,1.8-1.8h2.7a7.3,7.3,0,0,0,7.3-7.3V40.5a7.3,7.3,0,0,0-7.3-7.3H130.4a7.3,7.3,0,0,0-7.3,7.3v3.1a7.3,7.3,0,0,0,7.3,7.3H133a1.8,1.8,0,0,1,1.8,1.8v69.7a34,34,0,0,1-4.4,16.7l-70,124.1a41.8,41.8,0,0,0,.6,42.5C68.8,318.5,83,326,98,326H256c15,0,29.2-7.5,37-20.4A41.8,41.8,0,0,0,293.6,263.2Zm-15.6,33.3a25.2,25.2,0,0,1-21.7,12H97.8a25.2,25.2,0,0,1-21.7-12,24.3,24.3,0,0,1-.3-24.6l70-124.1a51.7,51.7,0,0,0,6.7-25.4V52.6a1.8,1.8,0,0,1,1.8-1.8h45.5a1.8,1.8,0,0,1,1.8,1.8v69.7a51.7,51.7,0,0,0,6.7,25.4l70,124.1A24.3,24.3,0,0,1,277.9,296.4Z"/></svg>