<?xml version="1.0" encoding="utf-8"?>
<!-- Generator: Adobe Illustrator 19.2.1, SVG Export Plug-In . SVG Version: 6.00 Build 0)  -->
<svg version="1.1" id="Layer_1" xmlns="http://www.w3.org/2000/svg" xmlns:xlink="http://www.w3.org/1999/xlink" x="0px" y="0px"
	 viewBox="0 0 354 354" style="enable-background:new 0 0 354 354;" xml:space="preserve">
<path d="M219.4,34.8h-93.3c-22.6,0-41,18.4-41,41v202c0,22.6,18.4,41,41,41h93.3c22.6,0,41-18.4,41-41v-202
	C260.4,53.2,242,34.8,219.4,34.8z M126.1,54.8h93.3c11.6,0,21,9.4,21,21v145.7H105.1V75.8C105.1,64.2,114.5,54.8,126.1,54.8z
	 M219.4,298.8h-93.3c-11.6,0-21-9.4-21-21v-36.3h135.3v36.3C240.4,289.4,231,298.8,219.4,298.8z"/>
</svg>
