<svg xmlns="http://www.w3.org/2000/svg" viewBox="0 0 354 354"><title>pskolog</title><path d="M254.5,164.7c1.9-14-.5-30.5-4.6-40.4-7.8-18.9-17.9-28.5-28.6-37.7l-0.3-.3a80.8,80.8,0,0,0-17.6-9.9l-3.2-1.2h0a93.3,93.3,0,0,0-32-5.4s-35-.7-56.9,15.3c-16.7,12.1-26.5,25.8-30.2,44,0,0-3.5,12.3-1.1,23.6s2.1,12.3.8,14.4L68.8,187.2s-7.3,9.7-7.1,14.3,1.8,5.7,5.5,6.3,9,1.8,9.8,3.3,0.6,3.8.2,5.5-2.3,6.8.4,9.4a20.2,20.2,0,0,0,3.8,3.1,0.3,0.3,0,0,1,0,.5c-1,.7-3.3,2.6-3,5.2s3.1,4.6,3.8,5.9a11.5,11.5,0,0,1,.7,5.6c-0.5,2.6-1.6,7-1.2,9.5s1.8,8.3,7.1,10.9,13.7,2.3,19,1.8,12.3-1.7,15.7.5,4.2,4,4.6,6.2,6.7,31.9,6.7,31.9H242l-5.9-14.9s-11.1-22.3-11.6-40.7,3.1-28.4,12.4-42.7S252.6,178.7,254.5,164.7Zm-29.3-21.2s-5,11.7-9.5,16.2-37.8,32.9-44.3,38.4a1.6,1.6,0,0,1-2.1,0l-34.4-29.5s-22.3-15.7-19-39.2,21.3-26.7,34.2-25.7,20.3,14,20.3,14,15-22.5,38-11.8S225.2,143.4,225.2,143.4Z"/></svg>