<svg xmlns="http://www.w3.org/2000/svg" viewBox="0 0 354 354"><title>pskolog</title><path d="M306.29,79.2H285.37a1.71,1.71,0,0,1-1.71-1.71V56.57a4.79,4.79,0,0,0-4.79-4.79H261.46a4.79,4.79,0,0,0-4.79,4.79V77.49A1.71,1.71,0,0,1,255,79.2H234A4.79,4.79,0,0,0,229.25,84v17.42A4.79,4.79,0,0,0,234,106.2H255a1.71,1.71,0,0,1,1.71,1.71v20.92a4.79,4.79,0,0,0,4.79,4.79h17.42a4.79,4.79,0,0,0,4.79-4.79V107.91a1.71,1.71,0,0,1,1.71-1.71h20.92a4.79,4.79,0,0,0,4.79-4.79V84A4.79,4.79,0,0,0,306.29,79.2Z"/><path d="M254.5,164.66c1.88-14-.83-30.36-4.62-40.37a79.93,79.93,0,0,0-4.14-9.07,3.79,3.79,0,0,0-3.34-2H234a11.79,11.79,0,0,1-11.79-11.79V88.72A3.07,3.07,0,0,0,221,86.25c-12.75-9.46-30-16.47-52.77-16.47,0,0-35-.69-56.92,15.25-16.71,12.13-26.46,25.75-30.21,44,0,0-3.46,12.25-1.12,23.58s2.08,12.25.83,14.42S68.75,187.2,68.75,187.2s-7.33,9.67-7.08,14.33,1.83,5.67,5.5,6.25,9,1.75,9.83,3.33,0.58,3.83.17,5.5-2.33,6.75.42,9.42a20.17,20.17,0,0,0,3.83,3.05,0.29,0.29,0,0,1,0,.5c-1,.67-3.28,2.6-3,5.2,0.33,3.25,3.13,4.58,3.79,5.88a11.51,11.51,0,0,1,.71,5.58c-0.5,2.63-1.62,7-1.21,9.5s1.83,8.33,7.13,10.88,13.71,2.33,19,1.83,12.33-1.71,15.71.5,4.21,4,4.63,6.17S134.88,307,134.88,307H242l-5.87-14.94S225,269.78,224.5,251.41s3.13-28.37,12.38-42.75S252.63,178.66,254.5,164.66Zm-29.33-21.21s-5,11.67-9.5,16.17c-4.07,4.07-37.8,32.9-44.27,38.42a1.64,1.64,0,0,1-2.14,0l-34.43-29.5s-22.33-15.75-19-39.25,21.33-26.67,34.17-25.67,20.33,14,20.33,14,15-22.5,38-11.83S225.17,143.45,225.17,143.45Z"/></svg>