<svg xmlns="http://www.w3.org/2000/svg" viewBox="0 0 354 354"><title>radiotologi</title><path d="M295.88,57.78H58.13A15.12,15.12,0,0,0,43,72.91v165A15.13,15.13,0,0,0,58.13,253h88.19v24.42H117.75a9.08,9.08,0,0,0-9.08,9.08v3.33a2.92,2.92,0,0,0,2.92,2.92H242.42a2.92,2.92,0,0,0,2.92-2.92v-3.33a9.08,9.08,0,0,0-9.08-9.08H207.69V253h88.19A15.13,15.13,0,0,0,311,237.91v-165A15.12,15.12,0,0,0,295.88,57.78ZM141.9,190c-2.77-.67-5.4.06-7.69,0-2.91-.12-8.09-1.06-14.66-4.44,0,0-10.36-5.29-12.7-7.37s-4-5.75-3-8.79,3.58-4.12,5.79-2.33,8.21,7.9,13.75,10,13.71,5.49,22.13,3.2,11.92-6.62,12.38-7.62,1-3.12-1.92-3.37-9.46.21-15-.79a92.46,92.46,0,0,1-22.46-7.08c-8-3.83-12-8-13-10.42s-0.33-6,1.58-6.71,3.75-.67,6.75,3,15.29,9.08,20.67,10.33,17.54,3,25.29,1.29c1.86-.4,3.63-0.87,5.24-1.34a3.51,3.51,0,0,0,2.51-3.37v-3.58a3.51,3.51,0,0,0-3.54-3.51c-6.23.06-16.64,0.17-20.13-.61-4.79-1.08-16.71-3.71-23-7.37s-9.08-6.21-10-9.75a5.35,5.35,0,0,1,2-6.12c0.92-.58,2.75-1.37,6,2.46s14.08,9.58,18.79,10.54,21.08,2,24.46,2a22.11,22.11,0,0,0,3-.23,2.79,2.79,0,0,0,2.42-2.75v-5.73a2.78,2.78,0,0,0-2.76-2.78c-2.13,0-4.11.07-4.11,0.07s-14.08-.21-20.58-2.62-11.92-5-15.67-9-3.62-8.92-1-11.37,5.21-2.46,6-.87,1.63,7.46,7.08,9.92,15.88,5.42,23.46,4.71c1.72-.16,3.22-0.28,4.52-0.4a3.37,3.37,0,0,0,3.07-3.37v-4.19a3.38,3.38,0,0,0-3.26-3.38c-1.91-.07-3.77,0-4.62,0-1.75,0-13.42.38-17-3.79s-4.87-6-2.75-10.38,6.17-3.5,7.21-1.33,1,4.63,3.88,5.58,12.54,0.75,13.83.67h0a2.83,2.83,0,0,0,2.65-2.83v-9.8a4.75,4.75,0,0,1,4.75-4.75h9A4.75,4.75,0,0,1,186,84.28v9.78a2.83,2.83,0,0,0,2.76,2.83h0.36c1.29,0.08,11,.29,13.83-0.67s2.83-3.42,3.88-5.58,5.08-3,7.21,1.33,0.79,6.21-2.75,10.38-15.21,3.79-17,3.79c-0.89,0-2.9-.13-4.92-0.14a3.38,3.38,0,0,0-3.4,3.38v4.18a3.36,3.36,0,0,0,2.8,3.33c1.44,0.23,3.17.43,5.23,0.62,7.58,0.71,18-2.25,23.46-4.71s6.33-8.33,7.08-9.92,3.29-1.58,6,.88,2.79,7.33-1,11.38-9.17,6.58-15.67,9-20.58,2.63-20.58,2.63-2.29-.09-4.56-0.06A2.79,2.79,0,0,0,186,129.5v5.63a2.79,2.79,0,0,0,2.32,2.75,21.54,21.54,0,0,0,3.58.32c3.38,0,19.75-1,24.46-2s15.54-6.71,18.79-10.54,5.08-3,6-2.46a5.35,5.35,0,0,1,2,6.13c-1,3.54-3.75,6.08-10,9.75s-18.21,6.29-23,7.38c-3.32.75-13.75,0.68-20.57,0.62a3.51,3.51,0,0,0-3.54,3.51v3.49a3.51,3.51,0,0,0,2.78,3.44,43,43,0,0,1,5.09,1.25c5.95,2.05,20.15.09,25.62-1.19s17.67-6.62,20.67-10.33,4.83-3.71,6.75-3,2.58,4.33,1.58,6.71-5,6.58-13,10.42a92.46,92.46,0,0,1-22.46,7.08c-5.58,1-12.12.54-15,.79s-2.37,2.38-1.92,3.38,4,5.33,12.38,7.63,16.58-1.12,22.13-3.2,11.54-8.18,13.75-10,4.79-.71,5.79,2.33-0.71,6.71-3,8.79-12.7,7.38-12.7,7.38c-6.56,3.38-11.75,4.31-14.66,4.44-2.29.1-4.92-.62-7.69,0s-1.6,3.25-1.37,3.83a32.85,32.85,0,0,0,3.46,4.52c1,1,3.21,2.88,8.52,3.31s10.54-2.52,12.35-3.52,7.73-7.48,8.79-8.73,4.31-3,6-.06,0.52,5.71-1.42,8.73-6,5.94-7.85,7.27a58.08,58.08,0,0,1-8,4.06,19.69,19.69,0,0,1-7.46,1.63c-0.71,0-2.85-.12-3.67.58s-0.23,2.25.81,3.69a9.75,9.75,0,0,0,6.63,3.75,12.48,12.48,0,0,0,8.25-2.06,51.41,51.41,0,0,0,5.23-6.12C244.66,208,247,210,247,210a6.45,6.45,0,0,1,.83,6.17c-1.42,3.33-4.25,9.17-12.67,10.83a17.81,17.81,0,0,1-17.42-5.75c-3.08-3.58-12.58-20-12.58-20l-18-25.9a0.59,0.59,0,0,0-1.07.34,4.19,4.19,0,0,1-4.19,4.19H171.71a4.19,4.19,0,0,1-4.19-4.19,0.39,0.39,0,0,0-.7-0.22l-18,25.78s-9.5,16.42-12.58,20A17.81,17.81,0,0,1,118.86,227c-8.42-1.67-11.25-7.5-12.67-10.83A6.45,6.45,0,0,1,107,210s2.31-2,4.56.85a51.41,51.41,0,0,0,5.23,6.13,12.48,12.48,0,0,0,8.25,2.06,9.75,9.75,0,0,0,6.63-3.75c1-1.44,1.63-3,.81-3.69s-3-.58-3.67-0.58a19.69,19.69,0,0,1-7.46-1.62,58.07,58.07,0,0,1-8-4.06c-1.85-1.33-5.92-4.25-7.85-7.27s-3.12-5.83-1.42-8.73,5-1.19,6,.06,7,7.73,8.79,8.73,7,4,12.35,3.52,7.56-2.31,8.52-3.31a32.85,32.85,0,0,0,3.46-4.52C143.51,193.26,144.67,190.68,141.9,190Zm41,24.15H170.69a3.17,3.17,0,0,1-3.17-3.17v-5.67a3.17,3.17,0,0,1,3.17-3.17h12.17a3.17,3.17,0,0,1,3.17,3.17V211A3.17,3.17,0,0,1,182.86,214.16Zm3.17,8.29v5.92a3.17,3.17,0,0,1-3.17,3.17H170.69a3.17,3.17,0,0,1-3.17-3.17v-5.92a3.17,3.17,0,0,1,3.17-3.17h12.17A3.17,3.17,0,0,1,186,222.45ZM182.86,197H170.69a3.17,3.17,0,0,1-3.17-3.17V188.2a3.17,3.17,0,0,1,3.17-3.17h12.17A3.17,3.17,0,0,1,186,188.2v5.67A3.17,3.17,0,0,1,182.86,197Z"/></svg>