<svg xmlns="http://www.w3.org/2000/svg" viewBox="0 0 354 354"><title>rehability</title><polygon points="176 250.17 176.31 243.91 149.68 248.56 149.16 255.88 176 250.17" fill="#020202"/><polygon points="175.36 262.96 175.68 256.67 148.77 261.38 148.25 268.72 175.36 262.96" fill="#020202"/><path d="M179.85,282.31L176,279.26a3.57,3.57,0,0,1-1.34-3l0.34-6.85-27.17,4.75-0.63,8.92a13.24,13.24,0,0,0,8.42,13.28l13.16,5.1A11.19,11.19,0,0,0,179.85,282.31Z" fill="#020202"/><path d="M172.07,147.42l7,14.29a0.36,0.36,0,0,1,0,.14l0.71,14.31h17L207.46,184H180.11l0.18,8.12a8.35,8.35,0,0,0,.92,3.63L195,221.59a0.45,0.45,0,0,0,.82,0l10.9-24.92a9.66,9.66,0,0,0,.8-3.54l0.29-8.66h7.55l-0.45,9.22a9.66,9.66,0,0,1-.75,3.28L200.6,229.14a8.32,8.32,0,0,0-.65,3.42l1.34,58.11a2.46,2.46,0,0,0,.69,1.43l1.56,1.83A1.73,1.73,0,0,1,204,295l0.11,5.19a2.67,2.67,0,0,1-2.59,2.73l-8.43.24a2.67,2.67,0,0,1-2.75-2.65l0-5.56a1.73,1.73,0,0,1,.37-1.09l1.43-1.8a1.48,1.48,0,0,0,.32-0.94l-0.7-58.54a8.32,8.32,0,0,0-.89-3.64l-16.88-33.6a8.35,8.35,0,0,1-.88-3.44l-1.64-44.34A0.36,0.36,0,0,1,172.07,147.42Z" fill="#020202"/><circle cx="140" cy="69.88" r="27.79" fill="#020202"/><path d="M218.38,164.43l-4-3.44-0.65-25.47a0.33,0.33,0,0,1,.27-0.33,7.58,7.58,0,0,0,6.07-7.43v-0.88a6.49,6.49,0,0,0-7.49-6.59L191.31,123a0.92,0.92,0,0,0-.74,1.26l5.21,12.77a0.92,0.92,0,0,0,1,.57l8.68-1.18a0.51,0.51,0,0,1,.57.47l1,17.74-11.72-10a7.5,7.5,0,0,1-2-2.74L180.54,112.4a24.32,24.32,0,0,0-20.93-14.67l-1.35-.08a33.22,33.22,0,0,1-39.55-2.25h-9.08a22.39,22.39,0,0,0-17.41,8.31L70.67,130.35a18.33,18.33,0,0,0-2.28,19.46L84.31,183a8.77,8.77,0,0,0,12.33,3.79l4.44-2.59L101,189.08a19.35,19.35,0,0,1-.78,5l-6.92,23.49L86.75,196a31.6,31.6,0,0,1-1-5.84l-6.45-7-0.35,5.26a20.3,20.3,0,0,0,.67,6.69l9,33.12L85.8,291.41c-1.51,0-2.81,1.65-2.88,3.16l-0.2,4.64a3.52,3.52,0,0,0,3.52,3.68h6.56a3.52,3.52,0,0,0,3.51-3.3l0.3-4.88a2.77,2.77,0,0,0-2.4-2.78l3.27-62.39,9.81-35.71a19.35,19.35,0,0,0,.67-4.32l2.23-53.57a6.66,6.66,0,0,0,6.6-6.88,6.78,6.78,0,0,0-5.76-6.33L100.2,135.6l1.9,0-0.67,34.56L91.05,146.64a6.83,6.83,0,0,1,.69-6.72l15.43-20.6a4.42,4.42,0,0,1,3.25-1.5,11.71,11.71,0,0,1,4.83,1.08h0a11,11,0,0,1-.44,20.48l-1.13,52.19-7.46,23.84,0.84,10.44a34.45,34.45,0,0,1-1.74,13.93l-4.61,13.46-2,36.55,5.72,0.19a13.2,13.2,0,0,0,13.06-9.3l13.3-38.11a34.45,34.45,0,0,0,1.53-10.15V200a1.8,1.8,0,0,1,1.17-1.73,1.73,1.73,0,0,1,2.13.92l10.76,23.72a42.09,42.09,0,0,1,3.67,20.1l26.58-5.65,0.07-1.39a42.1,42.1,0,0,0-1.92-14.85l-11.09-34.93a15.38,15.38,0,0,1-.63-6.35l5.66-51a0.41,0.41,0,0,1,.8-0.1l9.19,24.56a10.44,10.44,0,0,0,3.36,4.57l25.71,20a8.59,8.59,0,0,0,12.11-1.57A8.82,8.82,0,0,0,218.38,164.43Z" fill="#020202"/><path d="M294.44,71.63H275.36a1.12,1.12,0,0,1-1.12-1.12V51.43a3.84,3.84,0,0,0-3.84-3.84H254.24a3.84,3.84,0,0,0-3.84,3.84V70.51a1.12,1.12,0,0,1-1.12,1.12H230.19a3.84,3.84,0,0,0-3.84,3.84V91.63a3.84,3.84,0,0,0,3.84,3.84h19.08a1.12,1.12,0,0,1,1.12,1.12v19.08a3.84,3.84,0,0,0,3.84,3.84H270.4a3.84,3.84,0,0,0,3.84-3.84V96.59a1.12,1.12,0,0,1,1.12-1.12h19.08a3.84,3.84,0,0,0,3.84-3.84V75.47A3.84,3.84,0,0,0,294.44,71.63Z" fill="#020202"/></svg>