<?xml version="1.0" encoding="utf-8"?>
<!-- Generator: Adobe Illustrator 19.2.1, SVG Export Plug-In . SVG Version: 6.00 Build 0)  -->
<svg version="1.1" id="Layer_1" xmlns="http://www.w3.org/2000/svg" xmlns:xlink="http://www.w3.org/1999/xlink" x="0px" y="0px"
	 viewBox="0 0 354 354" style="enable-background:new 0 0 354 354;" xml:space="preserve">
<g>
	<path d="M177,312.3c-74.6,0-135.3-60.7-135.3-135.3S102.4,41.7,177,41.7S312.3,102.4,312.3,177S251.6,312.3,177,312.3z M177,61.7
		c-63.6,0-115.3,51.7-115.3,115.3c0,63.6,51.7,115.3,115.3,115.3c63.6,0,115.3-51.7,115.3-115.3C292.3,113.4,240.6,61.7,177,61.7z"
		/>
</g>
<g>
	<path d="M216.6,194.5h-40.7c-9.7,0-17.5-7.8-17.5-17.5v-55c0-5.5,4.5-10,10-10h0c5.5,0,10,4.5,10,10v52.5h38.2c5.5,0,10,4.5,10,10
		v0C226.6,190,222.1,194.5,216.6,194.5z"/>
</g>
</svg>
