<svg xmlns="http://www.w3.org/2000/svg" viewBox="0 0 354 354"><title>settingsBold</title><path d="M318.3,219.7l-32.1-27.5c2.2-6.1,1.4-24.6-.3-30.2l32.4-27.6a5.1,5.1,0,0,0,1.1-6.6L287.5,74.6a5.1,5.1,0,0,0-6.3-2.1L241.1,88.3a110.3,110.3,0,0,0-21-11.9l-7-42.5a5.1,5.1,0,0,0-5.1-4.3H146a5.1,5.1,0,0,0-5.1,4.3l-7,42.2a110.3,110.3,0,0,0-21.4,12L72.8,72.5a5.1,5.1,0,0,0-6.3,2.1L34.6,127.8a5.1,5.1,0,0,0,1.1,6.6l31.7,27.2c-1.2,6.7-1.5,26.1-.3,31.1l-31.4,27a5.1,5.1,0,0,0-1.1,6.5l31.9,53.2a5.1,5.1,0,0,0,6.3,2.2L111,266.8a110.3,110.3,0,0,0,22.9,13l7,40.3a5.1,5.1,0,0,0,5.1,4.3H208a5.1,5.1,0,0,0,5.1-4.3l7-40.6a110.3,110.3,0,0,0,22.5-12.9l38.6,15a5.1,5.1,0,0,0,6.3-2.2l31.9-53.2A5.1,5.1,0,0,0,318.3,219.7Zm-141.7,9.6A51.3,51.3,0,1,1,227.9,178,51.3,51.3,0,0,1,176.6,229.3Z" fill="#020202"/></svg>