<svg xmlns="http://www.w3.org/2000/svg" viewBox="0 0 354 354"><title>sick</title><path d="M277.27,202c-11.5-22.25-47-29.5-47-29.5S208.52,168.28,205,157c0,0-1.75-6.25-1.75-9a58.93,58.93,0,0,0,10-23s6.33,0.25,10.25-14.42-4.25-15.08-4.25-15.08S227.85,39.19,177,39.19s-42.25,56.33-42.25,56.33-8.17.42-4.25,15.08S140.77,125,140.77,125a58.93,58.93,0,0,0,10,23c0,2.75-1.75,9-1.75,9-3.5,11.25-25.25,15.5-25.25,15.5s-35.5,7.25-47,29.5c-10.81,20.91-14.55,86.44-15,94.24a1.32,1.32,0,0,0,.59,1.19c8.08,5.21,28.59,9.12,34,10.09A1.36,1.36,0,0,0,98,306.44l8.51-47.91,2.15,48.55a3,3,0,0,0,2.27,2.74c24.19,5.67,66.08,5,66.08,5s41.89,0.71,66.08-5a3,3,0,0,0,2.27-2.74l2.15-48.55,8.3,46.73a2.55,2.55,0,0,0,3,2.07c6.57-1.21,24.23-4.78,32.17-9.46a2.52,2.52,0,0,0,1.22-2.32C291.62,285.11,287.8,222.4,277.27,202ZM233,247.84c-2.5,8.31-9.62,17.13-19.12,23.44s-19,7.38-31.31,6.38-23-11.75-25.12-14-4.06-3-7-2.06-3.6,5.6-3.6,5.6v20.67H133.18s0.21-19.33,0-25,3.77-9.5,11.71-15,15.81-1.37,24.38-2.31,14.88-12.61,14.88-12.61S192,216,182.77,209.34A20.73,20.73,0,0,1,174,192.65V178h13s0.13,5.63,0,7.13-0.5,8.31,2.5,11.81,8.25-.37,8.25-0.37c6.88-3.25,23.25-5.87,32.5,10.25S235.52,239.53,233,247.84Z"/><path d="M222.81,239.19h-8.15a0.77,0.77,0,0,1-.77-0.77v-8.15a2.62,2.62,0,0,0-2.62-2.62h-8.33a2.63,2.63,0,0,0-2.62,2.63v8.15a0.77,0.77,0,0,1-.77.77h-8.15a2.63,2.63,0,0,0-2.62,2.63v8.33a2.63,2.63,0,0,0,2.63,2.63h8.15a0.77,0.77,0,0,1,.77.77v8.15a2.63,2.63,0,0,0,2.63,2.63h8.33a2.62,2.62,0,0,0,2.63-2.62v-8.15a0.77,0.77,0,0,1,.77-0.77h8.15a2.63,2.63,0,0,0,2.63-2.62v-8.33A2.63,2.63,0,0,0,222.81,239.19Z"/></svg>