<svg xmlns="http://www.w3.org/2000/svg" viewBox="0 0 354 354"><title>sunLinght</title><path d="M177,117.9A59.2,59.2,0,1,1,117.8,177,59.2,59.2,0,0,1,177,117.9m0-20.2A79.3,79.3,0,1,0,256.3,177,79.3,79.3,0,0,0,177,97.7h0Z"/><path d="M74.7,184.2H41.2a10.1,10.1,0,1,1,0-20.2H74.7A10.1,10.1,0,1,1,74.7,184.2Z"/><path d="M312.8,184.2H279.3a10.1,10.1,0,0,1,0-20.2h33.5A10.1,10.1,0,1,1,312.8,184.2Z"/><path d="M176.9,315.1A10.1,10.1,0,0,1,166.9,305V279.4a10.1,10.1,0,1,1,20.2,0V305A10.1,10.1,0,0,1,176.9,315.1Z"/><path d="M177,84.8a10.1,10.1,0,0,1-10.1-10.1V49a10.1,10.1,0,0,1,20.2,0V74.7A10.1,10.1,0,0,1,177,84.8Z"/><path d="M105.1,113.3a10,10,0,0,1-7.1-3L86.7,99a10.1,10.1,0,0,1,14.3-14.3l11.4,11.4A10.1,10.1,0,0,1,105.1,113.3Z"/><path d="M92,269.7a10.1,10.1,0,0,1-7.1-17.2l11.4-11.4a10.1,10.1,0,0,1,14.3,14.3L99.1,266.7A10,10,0,0,1,92,269.7Z"/><path d="M248.3,113.1a10.1,10.1,0,0,1-7.1-17.2l11.4-11.4a10.1,10.1,0,0,1,14.3,14.3l-11.4,11.4A10.1,10.1,0,0,1,248.3,113.1Z"/><path d="M261.4,269.4a10,10,0,0,1-7.1-3L243,255.1a10.1,10.1,0,1,1,14.3-14.3l11.4,11.4A10.1,10.1,0,0,1,261.4,269.4Z"/></svg>