<svg xmlns="http://www.w3.org/2000/svg" viewBox="0 0 354 354"><title>TiktokBold</title><path d="M177.84,34.57A143.89,143.89,0,1,0,321.73,178.46,143.89,143.89,0,0,0,177.84,34.57ZM256.92,162a70.51,70.51,0,0,1-15.86-1.91,76,76,0,0,1-24.93-10.75c-0.4-.26-0.83-0.83-1.25-0.63s-0.26.95-.26,1.44c0,20.64.08,41.28,0,61.92a59,59,0,0,1-52.2,58.66,58.44,58.44,0,0,1-33.6-5.94,30.74,30.74,0,0,1-4.9-3l-1.45-1.29h0a13.91,13.91,0,0,1-3-2.1,58.61,58.61,0,0,1-22.42-50,58.59,58.59,0,0,1,38.59-51.21,58.42,58.42,0,0,1,15.59-3.31,60.52,60.52,0,0,1,11.59.26c0.52,0.06.83,0.17,0.82,0.79,0,2.14,0,4.28-.05,6.43,0,0,.32,16.29.32,23.73,0,0.26,0,.53,0,0.79a0.76,0.76,0,0,1-1.12.79,28.18,28.18,0,0,0-6.23-1,23.73,23.73,0,0,0-9.53,1.42c-10.23,3.77-16.43,11.1-17.73,21.89-1.28,10.63,2.92,19.14,11.76,25.27,0.74,0.51,1.5,1,2.19,1.57l0.5,0.46a36.2,36.2,0,0,0,6.3,2.07,26.9,26.9,0,0,0,32-22,25.94,25.94,0,0,0,.32-4.6q0-62.16,0-124.33c0-1.93-.27-1.69,1.65-1.69h29.35c1,0,1,0,1,1a63.43,63.43,0,0,0,1,7.82c4.13,21,28.55,33.76,36.08,34.9a39.48,39.48,0,0,0,6.26.55c0.88,0,.9,0,0.9.86,0,1.95.38,22,.37,29.31C258.83,161.9,258.61,162,256.92,162Z" fill="#000100"/></svg>