<svg id="Layer_1" data-name="Layer 1" xmlns="http://www.w3.org/2000/svg" viewBox="0 0 354 354"><title>timer-nndwn-line-round</title><path d="M166.18,121.21V206.5A10.82,10.82,0,0,0,177,217.32h0a10.82,10.82,0,0,0,10.82-10.82V121.3a10.78,10.78,0,0,0-10.67-10.82H177v-0.09h-0.14A10.78,10.78,0,0,0,166.18,121.21Z"/><path d="M187.82,76.53V51.64h38.87a10.82,10.82,0,1,0,0-21.64H127.31a10.82,10.82,0,1,0,0,21.64h38.87V76.53C102.87,82,53,135.32,53,200A124,124,0,0,0,301,200C301,135.32,251.13,82,187.82,76.53ZM175.51,301.86c-54.89-.78-99.67-45.59-100.43-100.48A101.94,101.94,0,1,1,175.51,301.86Z"/></svg>