<svg xmlns="http://www.w3.org/2000/svg" viewBox="0 0 354 354"><title>translate_bold</title><path d="M258.9,163.4H238.5v-6.9a6.8,6.8,0,0,0-6.8-6.8h0a6.8,6.8,0,0,0-6.8,6.8v6.9H204.3a6.8,6.8,0,0,0-6.8,6.8h0a6.8,6.8,0,0,0,6.8,6.8H206s5.6,12.9,7.9,17,8.3,12.9,8.3,12.9l-15.3,12.6a6.9,6.9,0,1,0,8.7,10.6l16.1-13.3,16.1,13.3a6.9,6.9,0,1,0,8.7-10.6l-15.3-12.6s6.5-9.5,8.3-12.9,7.9-17,7.9-17h1.7a6.8,6.8,0,0,0,6.8-6.8h0A6.8,6.8,0,0,0,258.9,163.4Zm-20.6,24c-1.8,3.9-6.7,9.5-6.7,9.5a58.2,58.2,0,0,1-6.7-9.5c-1-2.1-3.4-7.8-4.2-9.7a0.4,0.4,0,0,1,.4-0.6h20.9a0.4,0.4,0,0,1,.4.6C241.8,179.5,239.3,185.2,238.3,187.3Z"/><path d="M273.3,99.7H174.9l-2.7-19.5a25.2,25.2,0,0,0-24.9-21.7H81.7A25.2,25.2,0,0,0,56.6,83.6V230.6a25.2,25.2,0,0,0,25.1,25.1h57.4l2.2,15.5a25.3,25.3,0,0,0,24.9,21.5H273.3a25.2,25.2,0,0,0,25.1-25.1V124.8A25.2,25.2,0,0,0,273.3,99.7Zm-130.5,91a6.9,6.9,0,0,1-6.8-5.6l-4.3-21.8H112.9l-4.3,21.8a6.9,6.9,0,1,1-13.5-2.7L109,114.2a6.9,6.9,0,0,1,6.8-5.5H129a6.9,6.9,0,0,1,6.8,5.5l13.8,68.2A6.9,6.9,0,0,1,142.8,190.7Zm137.7,77a7.1,7.1,0,0,1-7.1,7.1H168.9l19.4-30h0a25.1,25.1,0,0,0,4.1-17.5l-15-109.6h96a7.1,7.1,0,0,1,7.1,7.1V267.6Z"/><polygon points="122.4 122.5 122.4 122.5 122.4 122.5 122.4 122.5 121.1 122.5 115.7 149.5 129 149.5 123.6 122.5 122.4 122.5"/></svg>