<svg xmlns="http://www.w3.org/2000/svg" viewBox="0 0 354 354"><title>translate_light</title><path d="M149.6,182.4l-13.8-68.2a6.9,6.9,0,0,0-6.8-5.5H115.7a6.9,6.9,0,0,0-6.8,5.5L95.1,182.4a6.9,6.9,0,1,0,13.5,2.7l4.3-21.8h18.8l4.3,21.8A6.9,6.9,0,1,0,149.6,182.4Zm-33.9-32.9,5.4-27.1h2.5l5.4,27.1H115.7Z"/><path d="M258.9,163.4H238.5v-6.9a6.8,6.8,0,0,0-6.8-6.8h0a6.8,6.8,0,0,0-6.8,6.8v6.9H204.3a6.8,6.8,0,0,0-6.8,6.8h0a6.8,6.8,0,0,0,6.8,6.8H206s5.6,12.9,7.9,17,8.3,12.9,8.3,12.9l-15.3,12.6a6.9,6.9,0,1,0,8.7,10.6l16.1-13.3,16.1,13.3a6.9,6.9,0,1,0,8.7-10.6l-15.3-12.6s6.5-9.5,8.3-12.9,7.9-17,7.9-17h1.7a6.8,6.8,0,0,0,6.8-6.8h0A6.8,6.8,0,0,0,258.9,163.4Zm-20.6,24c-1.8,3.9-6.7,9.5-6.7,9.5a58.2,58.2,0,0,1-6.7-9.5c-1-2.1-3.4-7.8-4.2-9.7a0.4,0.4,0,0,1,.4-0.6h20.9a0.4,0.4,0,0,1,.4.6C241.8,179.5,239.3,185.2,238.3,187.3Z"/><path d="M273.3,99.7H174.9l-2.7-19.5a25.2,25.2,0,0,0-24.9-21.7H81.7A25.2,25.2,0,0,0,56.6,83.6V230.6a25.2,25.2,0,0,0,25.1,25.1h57.4l2.2,15.5a25.3,25.3,0,0,0,24.9,21.5H273.3a25.2,25.2,0,0,0,25.1-25.1V124.8A25.2,25.2,0,0,0,273.3,99.7ZM136.6,237.8H81.7a7.1,7.1,0,0,1-7.1-7.1V83.6a7.1,7.1,0,0,1,7.1-7.1h65.6a7.2,7.2,0,0,1,7.1,6.2l20.2,147.1a7.5,7.5,0,0,1,.1,1,7.1,7.1,0,0,1-7.1,7.1H136.6Zm143.9,29.9a7.1,7.1,0,0,1-7.1,7.1H168.9l17.6-27.6h0l0.9-1a25.1,25.1,0,0,0,3.2-5.3h0a25.1,25.1,0,0,0,1.9-13.6l-15-109.6h96a7.1,7.1,0,0,1,7.1,7.1V267.6Z"/></svg>