<?xml version="1.0" encoding="utf-8"?>
<!-- Generator: Adobe Illustrator 19.2.1, SVG Export Plug-In . SVG Version: 6.00 Build 0)  -->
<svg version="1.1" id="Layer_1" xmlns="http://www.w3.org/2000/svg" xmlns:xlink="http://www.w3.org/1999/xlink" x="0px" y="0px"
	 viewBox="0 0 354 354" style="enable-background:new 0 0 354 354;" xml:space="preserve">
<g>
	<path d="M177,177.2c-39.5,0-71.7-32.1-71.7-71.7s32.1-71.7,71.7-71.7c39.5,0,71.7,32.1,71.7,71.7S216.5,177.2,177,177.2z M177,53.9
		c-28.5,0-51.7,23.2-51.7,51.7s23.2,51.7,51.7,51.7c28.5,0,51.7-23.2,51.7-51.7S205.5,53.9,177,53.9z"/>
</g>
<g>
	<path d="M278.5,303.1h-203c-16.1,0-29.2-13.1-29.2-29.2v-1.8c0-46.1,37.5-83.7,83.7-83.7h94c46.1,0,83.7,37.5,83.7,83.7v1.8
		C307.7,290.1,294.6,303.1,278.5,303.1z M130,208.5c-35.1,0-63.7,28.6-63.7,63.7v1.8c0,5.1,4.1,9.2,9.2,9.2h203
		c5.1,0,9.2-4.1,9.2-9.2v-1.8c0-35.1-28.6-63.7-63.7-63.7H130z"/>
</g>
</svg>
