<?xml version="1.0" encoding="utf-8"?>
<!-- Generator: Adobe Illustrator 19.2.1, SVG Export Plug-In . SVG Version: 6.00 Build 0)  -->
<svg version="1.1" id="Layer_3" xmlns="http://www.w3.org/2000/svg" xmlns:xlink="http://www.w3.org/1999/xlink" x="0px" y="0px"
	 viewBox="0 0 354 354" style="enable-background:new 0 0 354 354;" xml:space="preserve">
<style type="text/css">
	.st0{fill:#050505;}
</style>
<path class="st0" d="M271.3,46.5H82.6C61,46.5,43.5,64,43.5,85.6v143.3c0,23,15.8,43,38.1,48.3l123.9,29.5
	c18.7,4.4,36.6-9.8,36.5-28.9l0-115.3c0-18.5-12.3-34.8-30.1-39.8L88.4,87.3c-4.5-1.3-7-6.2-5.4-10.6l0,0c1.5-4.1,5.8-6.3,9.9-5.1
	l39.4,11.2h138.9c4.4,0,8,3.6,8,8v0c0,4.4-3.6,8-8,8h-73.3c-1.6,0-1.9,2.2-0.4,2.6l18.2,5.2c12.1,3.4,22.4,10.4,29.9,19.7
	c0.5,0.6,1.3,1,2.1,1h23.5c4.4,0,8,3.6,8,8v0c0,4.4-3.6,8-8,8h-12c-1.8,0-3.1,1.8-2.6,3.6c1.7,5.5,2.6,11.4,2.6,17.4v77.2
	c0,3.1,2.5,5.6,5.6,5.6h6.1c21.9,0,39.7-17.8,39.7-39.7V85.7C310.5,64,292.9,46.5,271.3,46.5z M193.3,191.1
	c12.4,0,22.4,10,22.4,22.4c0,12.4-10,22.4-22.4,22.4s-22.4-10-22.4-22.4C170.9,201.1,181,191.1,193.3,191.1z"/>
</svg>
