<svg xmlns="http://www.w3.org/2000/svg" viewBox="0 0 354 354"><title>whatsappBold</title><path d="M177,37A142.47,142.47,0,0,0,61.89,263.42L43.9,316l55-17.36A142.47,142.47,0,1,0,177,37Zm83.4,200.17c-5.57,16.19-28.45,25.15-43.33,22.28s-41.07-12.7-56.74-23.15S135.44,216.47,116,192.1s-21-41.56-21-41.56c-5.11-32.49,17.46-45.9,17.46-45.9,3.57-1.83,9-2.26,15-2.26s8.18,4,8.18,4l12.62,29.85s3.22,5,3,9.66-7,10.79-11.05,15.05-3.74,6.18-.44,12.1,12.79,17.32,21.41,26.19,23.15,15.84,31.85,19.84,12.18-1.39,12.18-1.39,7.74-11.4,12-15.66,9.4-1.39,9.4-1.39,29.67,14.18,32.54,15.49,3.31,3.22,3.31,3.22C263.79,227.43,260.4,237.18,260.4,237.18Z"/></svg>