<svg xmlns="http://www.w3.org/2000/svg" viewBox="0 0 354 354"><title>wifiBoldround</title><path d="M177,31.1A145.9,145.9,0,1,0,322.9,177,145.9,145.9,0,0,0,177,31.1Zm1.1,228.4a24.8,24.8,0,1,1,24.7-24.9A24.9,24.9,0,0,1,178.1,259.6Zm65.3-56.8c-5.4,5.4-14.4,6.2-20.1,1.5-3.2-2.6-6.1-5.6-9.1-8.4a49,49,0,0,0-38.4-13.3c-12.3,1-22.8,6.2-31.6,14.9-2.6,2.6-5.2,5.3-7.9,7.9-9.1,8.5-23,4.8-26.2-7.1a14.6,14.6,0,0,1,3.7-14.4c8.1-8.5,16.4-16.9,26.9-22.6a81.5,81.5,0,0,1,39.1-10.1,79.9,79.9,0,0,1,40.8,10.9,90,90,0,0,1,24.3,20.8C249.4,188.5,248.6,197.5,243.3,202.8Zm35.5-37.9c-6.3,4.6-13.6,4.3-19.7-1.1-26.6-23.3-34.4-34.2-79.3-37.1-38.7-2.4-67.5,26.3-83.5,39.6-9.8,8.1-23.5,4.6-24.8-6.5-0.7-6.3,1.9-10.2,6.6-15.7a131.3,131.3,0,0,1,37.4-29.7c16.2-8.6,34.9-14.6,53.2-16.2,28.1-2.5,54.1,2.2,78,17.9a171.1,171.1,0,0,1,32.9,28.1C284.8,149.9,285.5,160,278.8,164.9Z"/></svg>