<svg xmlns="http://www.w3.org/2000/svg" viewBox="0 0 354 354"><title>wifiLigh</title><path d="M202.8,234.6a24.8,24.8,0,1,1-24.9-24.7A24.9,24.9,0,0,1,202.8,234.6Z"/><path d="M279.6,144.2c5.2,5.7,5.9,15.8-.8,20.7s-13.6,4.3-19.7-1.1c-26.6-23.3-34.4-34.2-79.3-37.1-38.7-2.4-67.5,26.3-83.5,39.6-9.7,8.2-23.5,4.6-24.8-6.5-0.7-6.3,1.9-10.2,6.6-15.7a131.5,131.5,0,0,1,37.4-29.7c16.2-8.6,34.9-14.6,53.2-16.2,28.1-2.5,54.1,2.2,78,17.9A170.7,170.7,0,0,1,279.6,144.2Z"/><path d="M244.8,182.9c4.6,5.6,3.8,14.6-1.5,19.9s-14.3,6.2-20.1,1.5c-3.2-2.6-6.1-5.6-9.1-8.5a49,49,0,0,0-38.4-13.3c-12.3,1-22.8,6.2-31.6,14.9-2.6,2.6-5.2,5.3-7.9,7.9-9.1,8.6-23,4.8-26.2-7.1a14.6,14.6,0,0,1,3.7-14.4c8.1-8.5,16.4-16.9,26.9-22.6a81.5,81.5,0,0,1,39.1-10.1,79.9,79.9,0,0,1,40.8,10.9A89.9,89.9,0,0,1,244.8,182.9Z"/></svg>