<svg id="Layer_1" data-name="Layer 1" xmlns="http://www.w3.org/2000/svg" viewBox="0 0 354 354"><title>coffe-nndwn-solid</title><path d="M271,156.44H85.89A10.06,10.06,0,0,0,75.83,166.5v44.69A94.59,94.59,0,0,0,106.46,281H79.56a12.82,12.82,0,0,0-12.94,11.7,12.53,12.53,0,0,0,12.51,13.37H262.51A12.53,12.53,0,0,0,275,292.69,12.82,12.82,0,0,0,262.08,281H235.18a95.1,95.1,0,0,0,23.19-33H271a45.78,45.78,0,0,0,45.78-45.78h0A45.78,45.78,0,0,0,271,156.44Zm0,67.81h-6.07a95.46,95.46,0,0,0,.93-13.06v-31H271A22,22,0,1,1,271,224.26Z"/><path d="M144.47,56.94l5.83-6.6a12.38,12.38,0,0,0-1.08-17.47h0a12.38,12.38,0,0,0-17.14.72l-4.33,4.53A42.24,42.24,0,0,0,127,95.71l11.28,12.43a12.57,12.57,0,0,1,3.26,8.45V118a12.14,12.14,0,0,0,12.14,12.14h0A12.14,12.14,0,0,0,165.81,118v-2a34.81,34.81,0,0,0-9-23.34L144.59,79.12A16.65,16.65,0,0,1,144.47,56.94Z"/><path d="M203,56.94l5.83-6.6a12.38,12.38,0,0,0-1.08-17.47h0a12.38,12.38,0,0,0-17.14.72l-4.33,4.53a42.24,42.24,0,0,0-.76,57.59l11.28,12.43a12.57,12.57,0,0,1,3.26,8.45V118a12.14,12.14,0,0,0,12.14,12.14h0A12.14,12.14,0,0,0,224.39,118v-2a34.81,34.81,0,0,0-9-23.34L203.17,79.12A16.65,16.65,0,0,1,203,56.94Z"/></svg>